<svg width="609" height="605" viewBox="0 0 609 605" fill="none" xmlns="http://www.w3.org/2000/svg">
<path d="M201.488 313.458L187.739 289.862L137.693 376.57L118.991 343.641L57.3945 450.105H122.29L201.488 313.458Z" fill="#2b5a2d"/>
<path d="M271.544 223.773L250.425 259.081H292.113L271.544 223.773Z" fill="black"/>
<path d="M250.425 259.081H292.113L271.544 223.773L250.425 259.081Z" fill="#2b5a2d"/>
<path d="M293.925 299.76L290.632 294.259L275.262 320.657C273.616 322.856 269.771 322.856 268.676 320.657L253.306 293.707L247.815 303.056C246.169 305.254 242.324 305.254 241.229 303.056L233.54 289.862L140.769 451.011H293.922L293.925 299.76Z" fill="#2b5a2d"/>
<path d="M485.145 441.957H542.238L490.631 352.33L485.144 362.226L485.145 441.957Z" fill="#2b5a2d"/>
<path fill-rule="evenodd" clip-rule="evenodd" d="M474.514 194.841L389.948 147.176L304.497 194.841V471.524H474.514V194.841ZM366.444 238.746C362.037 234.796 357.63 232.821 357.63 232.821C357.63 232.821 340.001 241.707 340.001 252.567V287.12H375.258V252.567C375.258 247.138 370.851 242.2 366.444 238.746ZM357.63 313.536C357.63 313.536 362.037 315.511 366.444 319.461C370.851 322.915 375.258 327.853 375.258 333.282V367.836H340.001V333.282C340.001 322.422 357.63 313.536 357.63 313.536ZM366.444 400.177C362.037 396.227 357.63 394.252 357.63 394.252C357.63 394.252 340.001 403.138 340.001 413.998V448.552H375.258V413.998C375.258 408.569 370.851 403.631 366.444 400.177ZM420.799 232.821C420.799 232.821 425.206 234.796 429.613 238.746C434.02 242.2 438.427 247.138 438.427 252.567V287.12H403.17V252.567C403.17 241.707 420.799 232.821 420.799 232.821ZM429.613 319.461C425.206 315.511 420.799 313.536 420.799 313.536C420.799 313.536 403.17 322.422 403.17 333.282V367.836H438.427V333.282C438.427 327.853 434.02 322.915 429.613 319.461ZM420.799 394.252C420.799 394.252 425.206 396.227 429.613 400.177C434.02 403.631 438.427 408.569 438.427 413.998V448.552H403.17V413.998C403.17 403.138 420.799 394.252 420.799 394.252Z" fill="#6b6b6b"/>
<path d="M92.4555 302.905C92.4555 184.985 188.39 89.0036 306.253 89.0036C424.116 89.0036 520.051 184.985 520.051 302.905C520.051 322.65 517.309 341.848 511.83 359.944L533.209 396.691C544.724 367.622 551.3 336.362 551.3 302.905C551.3 167.434 441.112 57.1926 305.707 57.1926C170.301 57.1926 60.1133 167.434 60.1133 302.905C60.1133 334.17 66.1437 363.785 76.5602 391.208L98.4863 353.363C94.6508 337.46 92.4598 320.457 92.4598 302.904L92.4555 302.905Z" fill="bisque"/>
<path d="M415.482 485.415C383.149 504.595 345.881 516.099 305.876 516.099C253.263 516.099 205.038 496.373 167.772 464.591H121.738C166.679 515.549 232.44 547.881 305.876 547.881C368.898 547.881 425.895 524.321 469.738 484.868H415.482V485.415Z" fill="bisque"/>
</svg>
