<svg width="984" height="602" viewBox="0 0 984 602" fill="none" xmlns="http://www.w3.org/2000/svg">
<path fill-rule="evenodd" clip-rule="evenodd" d="M313.269 538H141.269L166.44 266.46H105V217.421L494.36 64L879 217.42V266.46H843.69H819.22L844.39 538H672.39V366.371C672.39 340.092 658.395 315.809 635.683 302.67C612.971 289.53 584.981 289.53 562.268 302.67C539.556 315.809 525.561 340.092 525.561 366.371V538H521.89H463.769H460.098V366.371C460.098 340.092 446.103 315.809 423.391 302.67C400.678 289.53 372.689 289.53 349.976 302.67C327.264 315.809 313.269 340.092 313.269 366.371V538ZM229.481 335.897C229.481 335.897 238.379 339.464 247.277 346.599C256.176 352.838 265.074 361.758 265.074 371.564V433.977H193.884V371.564C193.884 351.948 229.481 335.899 229.481 335.899V335.897ZM769.181 346.599C760.283 339.464 751.384 335.897 751.384 335.897V335.899C751.384 335.899 715.788 351.948 715.788 371.564V433.977H786.978V371.564C786.978 361.758 778.079 352.838 769.181 346.599ZM329.531 216H295.941V249.591H329.531V216ZM252.471 216H286.061V249.591H252.471V216ZM242.591 216H209V249.591H242.591V216ZM339.411 216H373.002V249.591H339.411V216ZM416.472 216H382.882V249.591H416.472V216ZM426.352 216H459.943V249.591H426.352V216ZM503.413 216H469.822V249.591H503.413V216ZM513.293 216H546.884V249.591H513.293V216ZM590.354 216H556.763V249.591H590.354V216ZM600.233 216H633.824V249.591H600.233V216ZM677.294 216H643.704V249.591H677.294V216ZM687.174 216H720.765V249.591H687.174V216ZM764.235 216H730.645V249.591H764.235V216Z" fill="#4b2409"/>
</svg>
