<svg xmlns="http://www.w3.org/2000/svg" width="19.299" height="19.299" viewBox="0 0 19.299 19.299">
  <g id="Grupo_141" data-name="Grupo 141" transform="translate(-80.653 -3198.155)">
    <g id="g992" transform="translate(84.563 3209.041)">
      <path id="path994" d="M-84.26-29.325a2.817,2.817,0,0,1-2-.83l-2.895-2.895a.55.55,0,0,0-.761,0l-2.905,2.905a2.818,2.818,0,0,1-2,.83h-.57l3.666,3.666a2.932,2.932,0,0,0,4.146,0l3.677-3.677Z" transform="translate(95.4 33.202)" fill="#32bcad"/>
    </g>
    <g id="g996" transform="translate(84.563 3198.155)">
      <path id="path998" d="M-4.314-34.223a2.817,2.817,0,0,1,2,.83L.6-30.487a.538.538,0,0,0,.761,0l2.895-2.895a2.818,2.818,0,0,1,2-.83h.349L2.928-37.889a2.932,2.932,0,0,0-4.146,0l-3.666,3.666Z" transform="translate(4.884 38.747)" fill="#32bcad"/>
    </g>
    <g id="g1000" transform="translate(80.653 3203.5)">
      <path id="path1002" d="M-139.473-16.871l-2.222-2.222a.423.423,0,0,1-.158.032h-1.01a2,2,0,0,0-1.4.581l-2.895,2.895a1.385,1.385,0,0,1-.982.406,1.386,1.386,0,0,1-.982-.406l-2.906-2.906a2,2,0,0,0-1.4-.581h-1.242a.421.421,0,0,1-.149-.03l-2.231,2.231a2.932,2.932,0,0,0,0,4.146l2.231,2.231a.422.422,0,0,1,.149-.03h1.242a2,2,0,0,0,1.4-.581l2.905-2.905a1.423,1.423,0,0,1,1.965,0l2.895,2.894a2,2,0,0,0,1.4.581h1.01a.423.423,0,0,1,.158.032l2.222-2.222a2.932,2.932,0,0,0,0-4.146" transform="translate(157.913 19.102)" fill="#32bcad"/>
    </g>
  </g>
</svg>
