<?xml version="1.0" encoding="utf-8"?>
<!-- Generator: Adobe Illustrator 25.2.1, SVG Export Plug-In . SVG Version: 6.00 Build 0)  -->
<svg version="1.1" id="Camada_1" xmlns="http://www.w3.org/2000/svg" xmlns:xlink="http://www.w3.org/1999/xlink" x="0px" y="0px"
	 viewBox="0 0 290 77" style="enable-background:new 0 0 290 77;" xml:space="preserve">
<style type="text/css">
	.st0{display:none;}
	.st1{display:inline;}
	.st2{fill:#6300FF;}
	.st3{fill:#FC29DE;}
	.st4{fill:#6300FF;}
</style>
<g class="st0">
	<g class="st1">
		<rect x="141" y="21.4" class="st2" width="11.3" height="35.6"/>
		<rect x="141" y="8.7" class="st2" width="11.3" height="10.1"/>
		<g>
			<g>
				<path class="st2" d="M32.1,15.9C27.2,11.6,20.7,9,13.8,8.7v11.4c4.1,0.2,7.9,1.9,10.8,4.4l0,0l0,0c1.9,1.7,4.2,4.5,4.2,8.5
					c0,1.8-0.5,3.5-1.4,5.1l0,0l0,0c-1.6,2.8-7.7,9.5-13.6,15.4v15.8c0.1,0,0.1-0.1,0.2-0.2c6.3-5.5,19.9-19.3,23.3-25.3
					c1.9-3.4,2.9-7,2.9-10.8C40.2,26.6,37.3,20.5,32.1,15.9"/>
				<path class="st2" d="M73,46c-0.8,0.6-2.1,1.3-3.7,2c-1.8,0.9-4.2,1.3-7.1,1.3c-3,0-5.3-0.7-7-2.2c-1.7-1.5-2.6-3.2-2.6-5.2h26.2
					V40c0-3.1-0.4-5.9-1.2-8.5c-0.8-2.6-2-4.8-3.5-6.7c-1.5-1.9-3.4-3.3-5.7-4.4c-2.3-1-4.9-1.6-7.9-1.6c-3,0-5.7,0.5-8,1.6
					c-2.4,1.1-4.3,2.5-6,4.3c-1.6,1.8-2.9,3.9-3.7,6.2c-0.9,2.4-1.3,4.9-1.3,7.4c0,2.9,0.5,5.6,1.4,8c0.9,2.4,2.3,4.5,4,6.2
					c1.8,1.7,3.9,3.1,6.4,4c2.5,1,5.3,1.5,8.5,1.5c2.4,0,4.4-0.2,6.3-0.7c1.8-0.4,3.4-1,4.8-1.5c0.7-0.3,1.4-0.6,2-1L73,46z
					 M53,32.2c0.3-0.8,0.8-1.6,1.5-2.2c0.7-0.7,1.5-1.2,2.5-1.7c1-0.4,2.1-0.7,3.5-0.7c1.3,0,2.4,0.2,3.4,0.7c0.9,0.4,1.7,1,2.4,1.7
					c0.6,0.7,1.1,1.4,1.4,2.2c0.3,0.8,0.5,1.6,0.5,2.4H52.5C52.5,33.9,52.6,33.1,53,32.2"/>
				<path class="st2" d="M100.2,34.8c-2.8-0.7-5-1.4-6.6-2c-1.6-0.6-2.4-1.5-2.4-2.7c0-0.8,0.4-1.5,1.2-2c0.8-0.5,2-0.7,3.8-0.7
					c1.9,0,3.7,0.3,5.2,0.9c1.4,0.6,2.6,1.2,3.7,1.8l1.8-9.1c-1-0.4-2-0.8-3.1-1.2c-2.4-0.7-5.1-1.1-8.2-1.1c-2.2,0-4.3,0.3-6.2,0.8
					c-1.9,0.5-3.6,1.3-4.9,2.4c-1.4,1-2.5,2.2-3.3,3.6c-0.8,1.4-1.2,2.9-1.2,4.7c0,1.7,0.3,3.1,1,4.4c0.7,1.3,1.5,2.3,2.6,3.2
					c1.1,0.9,2.3,1.6,3.7,2.2c1.4,0.6,2.8,1.1,4.2,1.5c1.7,0.5,3.2,0.9,4.3,1.3c1.1,0.4,2,0.7,2.6,1.1c0.6,0.3,1.1,0.7,1.3,1.1
					c0.2,0.4,0.4,0.8,0.4,1.3c0,1.2-0.5,2-1.6,2.4c-1.1,0.4-2.5,0.6-4.2,0.6c-1.8,0-3.7-0.4-5.7-1.1c-1.9-0.7-3.4-1.6-4.6-2.6
					L82,55.5c1,0.5,2.1,1,3.3,1.3c2.9,0.9,6,1.3,9.3,1.3c2,0,4-0.2,6-0.7c2-0.5,3.7-1.2,5.3-2.2c1.5-1,2.8-2.2,3.7-3.7
					c0.9-1.5,1.4-3.2,1.4-5.3c0-3-0.9-5.5-2.6-7.3C106.7,37.3,104,35.8,100.2,34.8"/>
				<path class="st2" d="M136.4,47.3c-0.6,0.4-1.3,0.8-2,1.1c-0.8,0.4-1.8,0.6-3,0.6c-1.5,0-2.6-0.5-3.3-1.5c-0.7-1-1.1-2.3-1.1-4.1
					V28.9h9.5v-8.9H127V8.7h-11.3v11.3h-3.5l-1.7,8.9h5.2v13.9c0,2.3,0.2,4.4,0.7,6.3c0.5,1.9,1.3,3.5,2.4,4.8
					c1.1,1.3,2.5,2.4,4.3,3.1c1.8,0.8,4,1.1,6.6,1.1c3,0,5.7-0.7,8.4-2.1L136.4,47.3z"/>
				<path class="st2" d="M160.8,20h12.3l-0.4,3.8c1.9-1.9,3.8-3.2,5.7-3.8c1.9-0.7,3.9-1,6-1c1.4,0,2.7,0.2,3.9,0.7
					c1.2,0.5,2.3,1.2,3.1,2.2c0.9,0.9,1.6,2.1,2.1,3.5c0.5,1.4,0.8,2.9,0.8,4.6c0,0.6,0,1.3-0.1,1.9c-0.1,0.7-0.1,1.3-0.2,2.1
					l-4.5,22.9h-12.7l3.8-20.1c0.2-0.7,0.2-1.4,0.2-2c0-1.2-0.3-2.2-0.9-3c-0.6-0.8-1.6-1.2-3.1-1.2c-2,0-3.5,0.7-4.6,2
					c-1.1,1.3-1.8,2.9-2.2,4.7l-3.8,19.7h-12.7L160.8,20z"/>
				<path class="st2" d="M192.8,38.5c0-2.7,0.5-5.3,1.5-7.7c1-2.4,2.3-4.5,4-6.3c1.7-1.8,3.8-3.2,6.2-4.2c2.4-1,5.1-1.5,8-1.5
					c2.9,0,5.6,0.5,8,1.5c2.4,1,4.5,2.4,6.2,4.2c1.7,1.8,3.1,3.9,4,6.3c1,2.4,1.5,5,1.5,7.7c0,2.8-0.5,5.4-1.5,7.7
					c-1,2.4-2.3,4.5-4,6.2c-1.7,1.8-3.8,3.2-6.2,4.2c-2.4,1-5.1,1.5-8,1.5c-2.9,0-5.6-0.5-8-1.5c-2.4-1-4.5-2.4-6.2-4.2
					c-1.7-1.8-3.1-3.9-4-6.2C193.3,43.8,192.8,41.3,192.8,38.5 M212.6,46.6c2.2,0,4-0.8,5.3-2.3c1.3-1.5,2-3.5,2-5.8s-0.7-4.3-2-5.8
					c-1.3-1.5-3.1-2.3-5.3-2.3c-2.2,0-4,0.8-5.3,2.3c-1.3,1.5-2,3.5-2,5.8s0.7,4.3,2,5.8C208.6,45.8,210.4,46.6,212.6,46.6"/>
				<polygon class="st2" points="226.1,20 239.2,20 245,41.7 251.5,20 261.8,20 268.4,41.7 274.2,20 287.3,20 274.5,56.9 
					263.1,56.9 256.7,37.9 250.3,56.9 238.9,56.9 				"/>
				<polygon class="st2" points="2.4,8.7 2.4,10.6 2.4,52.8 2.4,53.6 13.8,53.5 13.8,52.8 13.8,10.5 13.8,8.7 				"/>
			</g>
		</g>
	</g>
</g>
<g>
	<path class="st3" d="M243.5,43.6c-0.5,0.5-1.3,1.2-2.4,2c-1.1,0.8-2.6,1.3-4.6,1.3c-1.8,0-3.4-0.7-4.8-2.2
		c-1.4-1.5-2.1-3.4-2.1-5.7c0-2.4,0.7-4.3,2.1-5.7c1.4-1.4,3-2.1,4.8-2.1c2.1,0,4.2,0.9,4.6,1.1c1.1,0.6,3.6,2.7,4.1,3.4l2.3-12.7
		c-5.7-3.6-11.4-3.1-11.4-3.1c-3.6,0-6.9,0.8-9.9,2.5c-2.9,1.7-5.3,3.9-7,6.8c-1.7,2.9-2.6,6.1-2.6,9.7c0,3.8,0.9,7.1,2.6,10
		c1.7,2.9,4.1,5.1,7,6.7c2.9,1.6,6.2,2.4,9.9,2.4c3.6,0,6.6-0.6,9.2-1.9c2.5-1.2,4.5-2.6,5.8-4.1L243.5,43.6z"/>
	<path class="st3" d="M155.4,42.4l2.4-12h-5.3l2.1-9.2h5.1l2.2-11.7h12.4L172,21.2h11.2l-1.8,9.2h-11.2l-2.6,13.1
		c-0.1,0.3-0.1,0.5-0.1,0.7c0,0.2,0,0.4,0,0.6c0,1,0.3,1.8,0.8,2.3c0.6,0.5,1.3,0.8,2.3,0.8c1,0,1.9-0.1,2.6-0.4
		c0.7-0.3,1.5-0.7,2.3-1.3l4.2,8c-1.9,1.5-3.5,2.2-5.7,2.9c-2.2,0.7-4.4,1-6.6,1c-4.4,0-7.6-1-9.6-3c-2-2-3-4.7-3-8.1
		C154.9,45.4,155,43.9,155.4,42.4z"/>
	<path class="st3" d="M250.5,57.8V7.1h13v18.2c1-1.2,2.1-2.1,3.4-2.7c1.3-0.6,2.6-1,3.8-1.2c1.3-0.2,2.4-0.3,3.2-0.3
		c2.5,0,4.8,0.5,6.8,1.4c2,1,3.7,2.5,4.9,4.6c1.2,2.1,1.8,4.8,1.8,8.1v22.5h-13V38.6c0-1.9-0.4-3.4-1.3-4.5
		c-0.8-1.1-2.1-1.6-3.7-1.6c-2.3,0-3.9,0.7-4.7,2c-0.8,1.3-1.3,2.7-1.3,4.3v19.1H250.5z"/>
	<rect x="138.9" y="19.8" class="st4" width="11.3" height="37"/>
	<path class="st4" d="M32.3,15.8C27.4,11.5,20.9,8.9,14,8.7V20c4.1,0.2,7.9,1.9,10.8,4.4l0,0l0,0c1.9,1.7,4.2,4.5,4.2,8.5
		c0,1.8-0.5,3.5-1.4,5.1l0,0l0,0c-1.6,2.8-7.7,9.5-13.6,15.4v15.8c0.1,0,0.1-0.1,0.2-0.2c6.3-5.5,19.8-19.2,23.3-25.3
		c1.9-3.4,2.9-7,2.9-10.8C40.4,26.5,37.5,20.4,32.3,15.8z"/>
	<path class="st4" d="M74.2,24.7c-1.5-1.9-3.4-3.3-5.7-4.4c-2.2-1-4.9-1.6-7.8-1.6c-3,0-5.7,0.5-8,1.6c-2.4,1.1-4.3,2.5-6,4.3
		c-1.6,1.8-2.9,3.9-3.7,6.2c-0.9,2.4-1.3,4.9-1.3,7.4c0,2.9,0.5,5.6,1.4,8c0.9,2.4,2.2,4.5,4,6.2c1.8,1.7,3.9,3.1,6.4,4
		c2.5,1,5.3,1.5,8.5,1.5c2.4,0,4.4-0.2,6.3-0.7c1.8-0.4,3.4-1,4.7-1.5c0.7-0.3,1.4-0.6,2-1l-1.8-9c-0.8,0.6-2.1,1.3-3.7,2
		c-1.8,0.9-4.2,1.3-7.1,1.3c-3,0-5.3-0.7-7-2.2c-1.7-1.5-2.6-3.2-2.6-5.2h26.2v-1.9c0-3.1-0.4-5.9-1.2-8.5
		C76.9,28.8,75.7,26.5,74.2,24.7z M52.6,34.5c0-0.8,0.2-1.6,0.5-2.4c0.3-0.8,0.8-1.6,1.5-2.2c0.7-0.7,1.5-1.2,2.5-1.7
		c1-0.4,2.1-0.7,3.5-0.7c1.3,0,2.4,0.2,3.4,0.7c0.9,0.4,1.7,1,2.4,1.7c0.6,0.7,1.1,1.4,1.4,2.2c0.3,0.8,0.5,1.6,0.5,2.4H52.6z"/>
	<path class="st3" d="M212.2,24.7c-1.5-1.9-3.4-3.3-5.7-4.4c-2.2-1-4.9-1.6-7.8-1.6c-3,0-5.7,0.5-8,1.6c-2.4,1.1-4.3,2.5-6,4.3
		c-1.6,1.8-2.9,3.9-3.7,6.2c-0.9,2.4-1.3,4.9-1.3,7.4c0,2.9,0.5,5.6,1.4,8c0.9,2.4,2.2,4.5,4,6.2c1.8,1.7,3.9,3.1,6.4,4
		c2.5,1,5.3,1.5,8.5,1.5c2.4,0,4.4-0.2,6.3-0.7c1.8-0.4,3.4-1,4.7-1.5c0.7-0.3,1.4-0.6,2-1l-1.8-9c-0.8,0.6-2.1,1.3-3.7,2
		c-1.8,0.9-4.2,1.3-7.1,1.3c-3,0-5.3-0.7-7-2.2c-1.7-1.5-2.6-3.2-2.6-5.2h26.2v-1.9c0-3.1-0.4-5.9-1.2-8.5
		C214.9,28.8,213.8,26.5,212.2,24.7z M190.7,34.5c0-0.8,0.2-1.6,0.5-2.4c0.3-0.8,0.8-1.6,1.5-2.2c0.7-0.7,1.5-1.2,2.5-1.7
		c1-0.4,2.1-0.7,3.5-0.7c1.3,0,2.4,0.2,3.4,0.7c0.9,0.4,1.7,1,2.4,1.7c0.6,0.7,1.1,1.4,1.4,2.2c0.3,0.8,0.5,1.6,0.5,2.4H190.7z"/>
	<path class="st4" d="M100.3,34.7c-2.8-0.7-5-1.4-6.6-2c-1.6-0.6-2.4-1.5-2.4-2.7c0-0.8,0.4-1.5,1.2-2c0.8-0.5,2-0.7,3.8-0.7
		c1.9,0,3.7,0.3,5.2,0.9c1.4,0.6,2.8,1.2,3.9,1.8l1.8-9.1c-1-0.4-2.2-0.8-3.3-1.2c-2.4-0.7-5.1-1.1-8.2-1.1c-2.2,0-4.3,0.3-6.2,0.8
		c-1.9,0.5-3.6,1.3-4.9,2.4c-1.4,1-2.5,2.2-3.3,3.6c-0.8,1.4-1.2,2.9-1.2,4.7c0,1.7,0.3,3.1,1,4.4c0.7,1.3,1.5,2.3,2.6,3.2
		c1.1,0.9,2.3,1.6,3.7,2.2c1.4,0.6,2.8,1.1,4.2,1.5c1.7,0.5,3.2,0.9,4.3,1.3c1.1,0.4,2,0.7,2.6,1.1c0.6,0.3,1.1,0.7,1.3,1.1
		c0.2,0.4,0.4,0.8,0.4,1.3c0,1.2-0.5,2-1.6,2.4c-1.1,0.4-2.5,0.6-4.2,0.6c-1.8,0-3.7-0.4-5.7-1.1c-1.9-0.7-3.4-1.6-4.6-2.6l-1.9,9.8
		c1,0.5,2.1,1,3.3,1.3c2.9,0.9,6,1.3,9.3,1.3c2,0,4-0.2,6-0.7c2-0.5,3.7-1.2,5.3-2.2c1.5-1,2.8-2.2,3.7-3.6c0.9-1.5,1.4-3.2,1.4-5.3
		c0-3-0.9-5.5-2.6-7.3C106.8,37.2,104.1,35.7,100.3,34.7z"/>
	<path class="st4" d="M133.3,48.3c-0.8,0.4-1.8,0.6-3,0.6c-1.5,0-2.6-0.5-3.3-1.5c-0.7-1-1.1-2.3-1.1-4.1V30.4h7.2v-9.3h-7.2V8.7
		h-11.3v12.4h-3.5l-1.7,9.3h5.2v12.3c0,2.3,0.2,4.4,0.7,6.3c0.5,1.9,1.3,3.5,2.4,4.8c1.1,1.3,2.5,2.4,4.3,3.1c1.8,0.8,4,1.1,6.6,1.1
		c3,0,5.7-0.7,8.4-2.1l-1.7-8.8C134.6,47.6,134,48,133.3,48.3z"/>
	<polygon class="st3" points="2.7,8.7 2.7,10.5 2.7,52.7 2.7,53.4 14,53.4 14,52.7 14,10.4 14,8.7 	"/>
	<rect x="138.9" y="8.7" class="st4" width="11.3" height="10.1"/>
</g>
</svg>
