<svg width="92" height="79" viewBox="0 0 92 79" fill="none" xmlns="http://www.w3.org/2000/svg">
<path d="M90.6482 75.0125C91.7608 57.0059 92.1707 38.9993 91.9365 20.9229C91.8779 15.828 91.7022 10.7331 91.5266 5.6382C91.468 4.52151 90.7068 3.96317 90.0041 3.96317C89.9456 3.89338 89.8284 3.89338 89.7113 3.89338C86.198 3.26524 82.6846 2.56731 79.1712 1.93917C76.1848 1.38083 73.1985 0.682897 70.1535 0.403725C69.9193 0.403725 69.6851 0.333932 69.4509 0.333932C69.0995 0.0547601 68.6311 -0.0848257 68.2212 0.0547603C67.8699 0.194346 67.5771 0.333932 67.2257 0.473518C59.3792 3.684 51.0057 4.94027 42.7492 4.17255C38.3575 3.75379 34.1415 2.49752 29.8669 1.24124C28.1102 0.75269 26.3535 0.264139 24.5968 0.124553C24.1283 0.0547599 23.6599 0.0547603 23.1329 0.0547603C22.6644 0.0547603 22.2545 0.0547599 21.7861 0.124553C19.9123 0.333932 18.1556 0.962069 16.3989 1.72979C11.6559 3.684 6.73714 4.17255 1.75986 4.6611H1.70131C1.64275 4.6611 1.58419 4.6611 1.46708 4.6611C0.70585 4.6611 -0.0553809 5.42882 0.00317532 6.40592C1.1743 24.3427 2.16976 42.2795 2.87243 60.2163C3.0481 65.3112 3.22377 70.4061 3.39944 75.501C3.45799 77.1062 4.98045 77.5948 5.80024 76.8969C12.3585 75.7802 18.9168 74.2447 25.2995 72.1509C26.1193 72.2207 26.8805 72.3603 27.6417 72.4999C29.6326 72.8489 31.6235 73.2676 33.6145 73.826C36.4252 74.5937 39.1187 75.6406 41.8709 76.5479C44.7401 77.4552 47.4923 77.3854 50.4201 76.7573C53.2308 76.1291 55.9829 75.3614 58.6765 74.3843C61.0188 73.6166 63.3025 72.7093 65.5276 71.6624C66.2303 71.3832 66.933 71.0342 67.5771 70.6853C67.6942 70.7551 67.8113 70.7551 67.9284 70.7551C71.676 71.3134 75.4236 72.2905 79.1126 73.3374C82.4504 74.2447 85.7295 75.4312 88.5402 77.8042C89.1843 78.3625 90.1798 77.9438 90.5311 77.176C90.8825 76.4781 90.7654 75.7104 90.3555 75.152C90.6482 75.152 90.6482 75.0822 90.6482 75.0125Z" fill="#C7D0FF"/>
<path d="M50.7179 74.5747C50.7179 74.5747 51.4493 72.8626 50.7179 72.1997C49.9865 71.5432 48.2647 70.7515 47.7339 70.3524C47.2032 69.9598 46.0769 69.889 45.8763 69.432C45.6756 68.9686 44.1545 68.9042 43.6885 68.8399C43.2224 68.7755 44.8147 67.72 45.4814 67.057C46.1416 66.4005 48.2647 64.0898 48.8667 63.9547C49.4622 63.8259 50.459 63.6908 50.459 62.6996C50.459 61.7084 50.5237 61.0519 50.1289 60.788C49.734 60.5241 48.8019 61.0519 48.8019 60.788C48.8019 60.5241 49.268 58.3486 48.8019 58.1491C48.3359 57.9495 47.1449 58.1491 47.009 57.6856C46.8795 57.2222 47.475 55.375 46.6789 55.0467C45.8827 54.7185 43.6302 55.375 43.0994 54.6541C42.5687 53.9268 43.6949 48.8485 43.5655 48.0568C43.436 47.2651 42.5039 46.9369 42.3745 46.3447C42.245 45.7526 42.5751 45.0253 42.0444 44.9609C41.5136 44.8965 39.3905 44.9609 39.2611 44.6327C39.1316 44.3044 39.4617 40.7386 38.4002 40.2817C37.3387 39.8182 34.6848 39.2261 33.7592 38.6983C32.8336 38.1705 31.7009 38.8978 30.7105 37.3789C29.7137 35.8599 30.7105 34.5404 30.115 33.7487C29.5195 32.9571 27.5971 33.62 27.5259 34.077C27.4612 34.5404 26.1343 35.8599 25.5388 35.8599C24.9433 35.8599 21.558 36.1238 21.558 35.7311C21.558 35.3385 22.0888 33.0922 21.558 33.0279C21.0273 32.9635 20.6324 34.476 19.1696 34.1478C17.7132 33.8195 18.5093 33.3497 17.642 33.0214C16.7617 32.6996 16.0303 30.1894 16.0303 29.6616C16.0303 29.1338 16.8264 28.6704 16.8912 28.2778C16.9559 27.8852 17.752 25.3106 19.6097 24.8472C21.4674 24.3838 22.5289 24.7829 22.5289 23.9268C22.5289 23.0708 23.5257 19.5758 23.1892 18.649C22.8591 17.7286 22.1924 16.9369 22.1276 16.3383C22.0629 15.7462 23.3898 16.3383 23.3898 15.8749C23.3898 15.4115 22.995 15.611 22.5289 15.2828C22.0629 14.9545 22.5289 14.0277 23.0597 14.0985C23.5905 14.1628 25.7783 14.0985 25.9789 13.7058C26.1796 13.3132 27.3059 14.0985 27.7007 14.9609C28.0955 15.817 29.1571 15.9521 29.6878 15.6882C30.2186 15.4244 33.9922 14.1628 33.5327 13.6029C33.0731 13.0493 32.2122 13.3132 32.141 13.0493C32.0763 12.7854 32.141 10.6743 31.9404 10.5456C31.7397 10.4169 31.1442 9.88907 31.4096 9.75391C31.675 9.62518 33.3967 10.3461 34.1282 10.2817C34.8661 10.2109 38.4455 8.36365 39.041 8.36365C39.6365 8.36365 40.4974 9.35485 40.3679 10.0114C40.2385 10.6679 39.9019 13.3776 40.3679 13.9697C40.834 14.5619 41.9602 15.3536 42.7564 14.6262C43.5525 13.8989 44.3487 13.8346 45.3455 13.7702C46.3423 13.7058 46.9378 13.3776 46.9378 12.9142C46.9378 12.4507 49.391 13.3068 50.0577 13.442C50.7179 13.5707 52.7115 12.8498 52.9122 11.7299C53.1128 10.6099 54.3038 9.947 54.8346 10.2109C55.3653 10.4748 55.6307 13.841 56.4916 14.0341C57.3525 14.2336 57.2878 15.2892 56.4916 15.9457C55.6955 16.6022 54.3685 17.7286 54.5692 18.3851C54.7698 19.0416 55.3006 18.7777 55.7602 18.1856C56.2262 17.5934 57.0224 17.0656 57.7473 17.1944C58.4787 17.3231 59.6697 17.6578 59.4044 18.1856C59.139 18.7133 57.8768 19.8976 57.6114 20.0972C57.346 20.2967 58.3428 21.3523 58.8024 20.625C59.2684 19.8976 60.33 17.986 60.9902 18.1212C61.6504 18.2499 63.9094 19.0416 64.4402 19.3763C64.9709 19.7046 66.1619 19.1768 66.3626 19.9684C66.5632 20.7601 66.4273 21.7513 67.094 21.4874C67.7542 21.2235 69.0812 21.4874 69.8126 21.8157C70.544 22.1439 73.5927 21.7513 74.2529 22.1439C74.9131 22.5366 78.4279 25.7033 79.2952 25.7033C80.1561 25.7033 81.8843 25.7676 82.0785 26.231C82.2792 26.6945 82.9394 28.1426 82.9394 28.87C82.9394 29.5973 82.7387 31.7728 82.0138 32.4293C81.2823 33.0858 78.5638 36.0594 78.0977 36.5807C77.6317 37.1085 76.3048 40.0113 75.774 40.2109C75.2432 40.4104 76.1041 45.3535 75.5086 46.5443C74.9131 47.7286 72.324 54.2615 71.9939 54.5897C71.6638 54.918 70.2722 56.7652 68.6798 56.3726C67.0875 55.98 66.2914 56.5721 65.6312 56.9004C64.9709 57.2286 59.728 60.1315 59.1972 61.0519C58.6665 61.9723 58.9966 62.2362 59.0678 63.4269C59.1325 64.6112 59.5338 65.4029 58.6017 65.8663C57.6761 66.3297 56.9447 68.5052 56.2133 68.9686C55.4819 69.432 54.621 68.8399 54.4203 69.2325C54.2197 69.6251 52.7633 70.7515 53.0287 71.2793C53.3005 71.8071 52.1095 74.6391 50.7179 74.5747Z" fill="#19C747"/>
<path d="M23.0436 37.0418C22.9858 37.0383 22.9858 37.0383 22.9252 37.1045C22.8674 37.101 22.8645 37.1706 22.8645 37.1706C22.8039 37.2368 22.7982 37.376 22.7953 37.4456C22.7953 37.4456 22.7925 37.5152 22.8502 37.5187C22.8474 37.5883 22.9051 37.5918 22.96 37.6648C23.0698 37.8109 23.1825 37.8875 23.3501 38.037C23.4079 38.0405 23.405 38.1101 23.4628 38.1136C23.5205 38.117 23.5205 38.117 23.5783 38.1205C23.6361 38.1239 23.6361 38.1239 23.6967 38.0578C23.7545 38.0612 23.7573 37.9916 23.7573 37.9916C23.818 37.9254 23.8237 37.7862 23.8266 37.7166C23.8266 37.7166 23.8294 37.647 23.7717 37.6435C23.7745 37.5739 23.7168 37.5705 23.6619 37.4974C23.5521 37.3513 23.4394 37.2748 23.2718 37.1252C23.214 37.1217 23.2169 37.0521 23.1591 37.0487C23.1014 37.0452 23.1014 37.0452 23.0436 37.0418Z" fill="#595959"/>
<path d="M21.8681 35.5593C21.8103 35.5558 21.8074 35.6254 21.7497 35.622L21.689 35.6881C21.6862 35.7577 21.6255 35.8239 21.6227 35.8935L21.6198 35.9631C21.6169 36.0327 21.6718 36.1058 21.6718 36.1058C21.7267 36.1789 21.7267 36.1789 21.7816 36.2519C21.7816 36.2519 21.8365 36.325 21.8943 36.3285C21.9521 36.3319 21.9521 36.3319 22.0099 36.3354C22.0676 36.3388 22.0676 36.3388 22.1254 36.3423C22.1832 36.3457 22.186 36.2761 22.2438 36.2796L22.3044 36.2134C22.3073 36.1438 22.3679 36.0776 22.3708 36.008L22.3737 35.9384C22.3765 35.8688 22.3216 35.7957 22.3216 35.7957C22.2667 35.7227 22.2667 35.7227 22.2118 35.6496C22.2118 35.6496 22.1569 35.5765 22.0991 35.5731C22.0414 35.5696 22.0414 35.5696 21.9836 35.5662C21.9258 35.5627 21.9258 35.5627 21.8681 35.5593Z" fill="#595959"/>
<path d="M21.0367 33.529C20.9761 33.5952 20.9155 33.6614 20.9675 33.804L20.9646 33.8736C20.9618 33.9433 21.0167 34.0163 21.0167 34.0163C21.1236 34.2321 21.2334 34.3782 21.3404 34.5939C21.3404 34.5939 21.3953 34.667 21.453 34.6704C21.5108 34.6739 21.5108 34.6739 21.5686 34.6773C21.6263 34.6808 21.7447 34.6181 21.8025 34.6215C21.8632 34.5554 21.9238 34.4892 21.8717 34.3466L21.8746 34.2769C21.8775 34.2073 21.8226 34.1343 21.8226 34.1343C21.7156 33.9185 21.6058 33.7724 21.4989 33.5567C21.4989 33.5567 21.444 33.4836 21.3862 33.4801C21.3284 33.4767 21.3284 33.4767 21.2707 33.4732C21.1551 33.4663 21.0974 33.4629 21.0367 33.529Z" fill="#595959"/>
<path d="M20.6282 31.0921C20.5704 31.0886 20.5098 31.1548 20.4492 31.2209C20.3885 31.2871 20.3828 31.4263 20.38 31.4959C20.4291 31.7082 20.4754 31.9901 20.5246 32.2024C20.5217 32.272 20.5767 32.3451 20.6316 32.4181C20.6865 32.4912 20.802 32.4981 20.8598 32.5016C20.9175 32.505 20.9782 32.4389 21.0388 32.3727C21.0994 32.3065 21.1052 32.1673 21.108 32.0977C21.0589 31.8854 21.0126 31.6035 20.9634 31.3912C20.9662 31.3216 20.9113 31.2486 20.8564 31.1755C20.8015 31.1024 20.686 31.0955 20.6282 31.0921Z" fill="#595959"/>
<path d="M20.3829 28.6348C20.3222 28.701 20.2616 28.7672 20.2587 28.8368C20.2559 28.9064 20.2501 29.0456 20.2473 29.1152C20.2444 29.1848 20.2415 29.2544 20.2358 29.3937C20.2301 29.5329 20.2821 29.6756 20.3342 29.8182C20.3891 29.8913 20.444 29.9644 20.5017 29.9678C20.5595 29.9713 20.675 29.9782 20.7357 29.912C20.7963 29.8458 20.857 29.7797 20.8598 29.7101C20.8627 29.6405 20.8684 29.5012 20.8135 29.4282C20.8164 29.3586 20.7615 29.2855 20.7643 29.2159C20.7672 29.1463 20.7701 29.0767 20.7729 29.0071L20.7701 29.0767C20.7729 29.0071 20.7729 29.0071 20.7758 28.9374C20.7787 28.8678 20.7787 28.8678 20.7238 28.7948C20.6688 28.7217 20.6139 28.6486 20.5562 28.6452C20.5013 28.5721 20.4435 28.5687 20.3829 28.6348Z" fill="#595959"/>
<path d="M25.3905 39.4528L25.3452 39.3653C25.2998 39.2778 25.2998 39.2778 25.2334 39.2567C25.1217 39.1481 25.0552 39.127 24.9435 39.0183C24.8771 38.9972 24.8771 38.9972 24.8106 38.9761C24.7442 38.955 24.7442 38.955 24.6567 39.0004C24.5902 38.9793 24.5691 39.0457 24.5691 39.0457C24.5691 39.0457 24.4816 39.091 24.4605 39.1574L24.4394 39.2239C24.4183 39.2903 24.3972 39.3567 24.4425 39.4442L24.4879 39.5318C24.5332 39.6193 24.5332 39.6193 24.5996 39.6404L24.8895 39.8787C24.956 39.8998 24.956 39.8998 25.0224 39.9209C25.0888 39.942 25.0888 39.9421 25.1763 39.8967C25.2428 39.9178 25.2639 39.8514 25.2639 39.8514C25.2639 39.8514 25.3514 39.8061 25.3725 39.7397L25.3936 39.6732C25.4147 39.6068 25.4358 39.5404 25.3905 39.4528Z" fill="#595959"/>
<path d="M27.0422 40.2849L26.9725 40.2152C26.9028 40.1455 26.9028 40.1455 26.8331 40.1455C26.6937 40.0758 26.624 40.0758 26.4846 40.0061C26.4149 40.0061 26.4149 40.0061 26.3452 40.0061C26.2755 40.0061 26.2755 40.0061 26.2058 40.0758C26.1361 40.0758 26.1361 40.1455 26.1361 40.1455C26.1361 40.1455 26.0664 40.2152 26.0664 40.2849V40.3546C26.0664 40.4243 26.0664 40.494 26.1361 40.5637L26.2058 40.6334C26.2755 40.7031 26.2755 40.7031 26.3452 40.7031C26.4846 40.7728 26.5543 40.7728 26.6937 40.8425C26.7634 40.8425 26.7634 40.8425 26.8331 40.8425C26.9028 40.8425 26.9028 40.8425 26.9725 40.7728C27.0422 40.7728 27.0422 40.7031 27.0422 40.7031C27.0422 40.7031 27.1119 40.6334 27.1119 40.5637V40.494C27.0422 40.4243 27.0422 40.3546 27.0422 40.2849Z" fill="#595959"/>
<path d="M28.506 41.8879C28.506 41.8182 28.4363 41.7485 28.4363 41.7485C28.3666 41.6788 28.2969 41.6091 28.2272 41.5394C28.2272 41.5394 28.1575 41.4697 28.0878 41.4697C28.0182 41.4697 28.0182 41.4697 27.9485 41.4697C27.8788 41.4697 27.8788 41.4697 27.8091 41.4697C27.7394 41.4697 27.7394 41.5394 27.6697 41.5394L27.6 41.6091C27.6 41.6788 27.5303 41.7485 27.5303 41.8182V41.8879C27.5303 41.9576 27.6 42.0273 27.6 42.0273L27.8091 42.2364C27.8091 42.2364 27.8788 42.3061 27.9485 42.3061C28.0182 42.3061 28.0182 42.3061 28.0878 42.3061C28.1575 42.3061 28.1575 42.3061 28.2272 42.3061C28.2969 42.3061 28.2969 42.2364 28.3666 42.2364L28.4363 42.1667C28.4363 42.097 28.506 42.0273 28.506 41.9576C28.5757 41.8879 28.5757 41.8879 28.506 41.8879Z" fill="#595959"/>
<path d="M29.7612 43.5606C29.6915 43.4212 29.6218 43.2818 29.5521 43.1424C29.5521 43.0728 29.4824 43.0728 29.4824 43.0728C29.4824 43.0728 29.4127 43.0031 29.343 43.0031C29.2733 43.0031 29.2733 43.0031 29.2036 43.0031C29.1339 43.0031 29.1339 43.0031 29.0642 43.0728C28.9945 43.1424 28.9248 43.2121 28.9248 43.2818V43.3515C28.9248 43.4212 28.9248 43.4909 28.9945 43.5606L29.2036 43.9788C29.2036 44.0485 29.2733 44.0485 29.2733 44.0485C29.2733 44.0485 29.343 44.1182 29.4127 44.1182C29.4824 44.1182 29.4824 44.1182 29.5521 44.1182C29.6218 44.1182 29.6218 44.1182 29.6915 44.0485C29.7612 43.9788 29.8309 43.9091 29.8309 43.8394V43.7697C29.8309 43.7 29.8309 43.6303 29.7612 43.5606Z" fill="#595959"/>
<path d="M30.8054 45.9303C30.8054 45.8606 30.8054 45.8606 30.7357 45.7909C30.7357 45.7212 30.666 45.7212 30.666 45.7212C30.5963 45.7212 30.5963 45.6515 30.5266 45.6515C30.4569 45.6515 30.4569 45.6515 30.3872 45.6515C30.3872 45.6515 30.3175 45.6515 30.3175 45.7212C30.2478 45.7212 30.2478 45.7909 30.1781 45.8606C30.1781 45.8606 30.1781 45.9303 30.1084 45.9303C30.1084 46 30.1084 46.0697 30.1084 46.1394C30.1781 46.2788 30.1781 46.3485 30.2478 46.4879C30.2478 46.5575 30.2478 46.5576 30.3175 46.6272C30.3175 46.6969 30.3872 46.6969 30.3872 46.6969C30.4569 46.6969 30.4569 46.7666 30.5266 46.7666C30.5963 46.7666 30.5963 46.7666 30.666 46.7666C30.666 46.7666 30.7357 46.7666 30.7357 46.6969C30.8054 46.6969 30.8054 46.6272 30.8751 46.5576C30.8751 46.5576 30.8751 46.4879 30.9448 46.4879C30.9448 46.4182 30.9448 46.3485 30.9448 46.2788L30.8054 45.9303Z" fill="#595959"/>
<path d="M30.9456 47.9515C30.8759 47.8818 30.8062 47.8121 30.6668 47.8818C30.4578 47.8818 30.3184 48.0212 30.3184 48.2303V48.9969C30.3184 49.0666 30.3881 49.206 30.3881 49.2757C30.4578 49.3454 30.5275 49.4151 30.6668 49.3454C30.8759 49.3454 31.0153 49.206 31.0153 48.9969V48.2303C31.0153 48.0909 31.0153 48.0212 30.9456 47.9515Z" fill="#595959"/>
<path d="M30.0398 50.7395C30.0398 50.6698 30.0399 50.6698 29.9702 50.6001C29.9702 50.5304 29.9005 50.5304 29.9005 50.5304C29.9005 50.5304 29.8308 50.5304 29.8308 50.4607C29.7611 50.4607 29.6914 50.4607 29.6217 50.4607C29.6217 50.4607 29.552 50.4607 29.552 50.5304C29.4823 50.5304 29.4823 50.6001 29.4126 50.6698C29.3429 50.8092 29.2732 50.8789 29.2035 51.0183C29.2035 51.088 29.1338 51.088 29.1338 51.1577C29.1338 51.2274 29.1338 51.2274 29.1338 51.2971C29.1338 51.3668 29.1338 51.3668 29.2035 51.4365C29.2035 51.5061 29.2732 51.5061 29.2732 51.5061C29.2732 51.5061 29.3429 51.5061 29.3429 51.5758C29.4126 51.5758 29.4823 51.5758 29.552 51.5758C29.552 51.5758 29.6217 51.5758 29.6217 51.5061C29.6914 51.5061 29.6914 51.4364 29.7611 51.3668C29.8308 51.2274 29.9005 51.1577 29.9702 51.0183C29.9702 50.9486 30.0398 50.9486 30.0398 50.8789C30.0398 50.8092 30.0398 50.7395 30.0398 50.7395Z" fill="#595959"/>
<path d="M28.0187 51.297L27.949 51.2273C27.8793 51.1576 27.8793 51.1576 27.8096 51.1576C27.6702 51.0879 27.6005 51.0879 27.4612 51.0182C27.3915 51.0182 27.3915 51.0182 27.3218 51.0182C27.2521 51.0182 27.2521 51.0182 27.1824 51.0879C27.1127 51.0879 27.1127 51.1576 27.1127 51.1576C27.1127 51.1576 27.043 51.2273 27.043 51.297V51.3667C27.043 51.4364 27.043 51.5061 27.1127 51.5758L27.1824 51.6455C27.2521 51.7152 27.2521 51.7152 27.3218 51.7152L27.6702 51.8546C27.7399 51.8546 27.7399 51.8546 27.8096 51.8546C27.8793 51.8546 27.8793 51.8546 27.949 51.7849C28.0187 51.7849 28.0187 51.7152 28.0187 51.7152C28.0187 51.7152 28.0884 51.6455 28.0884 51.5758V51.5061C28.0884 51.4364 28.0884 51.3667 28.0187 51.297Z" fill="#595959"/>
<path d="M26.4838 50.3212C26.205 49.8333 25.9959 49.4151 25.7171 48.9272C25.6474 48.7878 25.3686 48.7181 25.2292 48.7878C25.0898 48.8575 25.0201 49.0666 25.0898 49.2757C25.3686 49.7636 25.5777 50.1818 25.8565 50.6697C25.9262 50.8091 26.205 50.8788 26.3444 50.8091C26.4838 50.6697 26.5535 50.4606 26.4838 50.3212Z" fill="#595959"/>
<path d="M25.3695 46.9061C25.2998 46.8364 25.2301 46.7667 25.0907 46.8364C24.8816 46.8364 24.7422 46.9758 24.7422 47.1848V47.9515C24.7422 48.0212 24.8119 48.1606 24.8119 48.2303C24.8816 48.3 24.9513 48.3697 25.0907 48.3C25.2998 48.3 25.4392 48.1606 25.4392 47.9515V47.1848C25.5089 47.0455 25.4392 46.9758 25.3695 46.9061Z" fill="#595959"/>
<path d="M25.3695 45.2334C25.3695 45.1637 25.2998 45.1637 25.2998 45.094C25.2998 45.094 25.2301 45.0243 25.1604 45.0243C25.0907 45.0243 25.0907 45.0243 25.021 45.0243H24.9513C24.8816 45.0243 24.8119 45.094 24.8119 45.094C24.7422 45.1637 24.7422 45.2334 24.7422 45.3728V45.7213C24.7422 45.791 24.7422 45.791 24.7422 45.8607C24.7422 45.9304 24.8119 45.9304 24.8119 46.0001C24.8119 46.0001 24.8816 46.0697 24.9513 46.0697C25.021 46.0697 25.021 46.0697 25.0907 46.0697H25.1604C25.2301 46.0697 25.2998 46.0001 25.2998 46.0001C25.3695 45.9304 25.3695 45.8607 25.3695 45.7213V45.3728C25.3695 45.3031 25.3695 45.2334 25.3695 45.2334Z" fill="#595959"/>
<path d="M26.1365 42.5151C26.1365 42.4454 26.1365 42.4454 26.0668 42.3757C26.0668 42.306 25.9971 42.306 25.9971 42.306C25.9274 42.2363 25.788 42.2363 25.7183 42.2363C25.6487 42.2363 25.579 42.306 25.5093 42.3757C25.4396 42.5151 25.3699 42.6545 25.3002 42.8636C25.3002 42.9333 25.2305 42.9333 25.2305 43.003C25.2305 43.0727 25.2305 43.0727 25.2305 43.1424C25.2305 43.2121 25.2305 43.2121 25.3002 43.2818C25.3002 43.3515 25.3699 43.3515 25.3699 43.3515C25.4396 43.4212 25.579 43.4212 25.6486 43.4212C25.7183 43.4212 25.788 43.3515 25.8577 43.2818C25.9274 43.1424 25.9971 43.003 26.0668 42.7939C26.0668 42.7242 26.1365 42.7242 26.1365 42.6545C26.2062 42.6545 26.1365 42.5848 26.1365 42.5151Z" fill="#595959"/>
<path d="M26.6938 41.4697C26.6938 41.4 26.6241 41.4 26.6241 41.3303L26.5544 41.2606C26.4847 41.2606 26.415 41.1909 26.3453 41.1909H26.2756C26.2059 41.1909 26.1362 41.2606 26.1362 41.2606L25.9271 41.4697C25.9271 41.4697 25.8574 41.5394 25.8574 41.6091C25.8574 41.6788 25.8574 41.6788 25.8574 41.7485C25.8574 41.8182 25.8574 41.8182 25.8574 41.8879C25.8574 41.9576 25.9271 41.9576 25.9271 42.0273L25.9968 42.097C26.0665 42.097 26.1362 42.1667 26.2059 42.1667H26.2756C26.3453 42.1667 26.415 42.097 26.415 42.097C26.4847 42.0273 26.5544 41.9576 26.6241 41.8879C26.6241 41.8879 26.6938 41.8182 26.6938 41.7485C26.6938 41.6788 26.6938 41.6788 26.6938 41.6091C26.7635 41.5394 26.6938 41.5394 26.6938 41.4697Z" fill="#595959"/>
<path d="M28.018 39.7273L27.9483 39.6576C27.8786 39.5879 27.8786 39.5879 27.8089 39.5879H27.7392C27.6695 39.5879 27.5998 39.5879 27.5301 39.6576C27.4604 39.7273 27.3907 39.7273 27.321 39.797C27.2513 39.797 27.2513 39.8667 27.2513 39.8667C27.2513 39.8667 27.1816 39.9364 27.1816 40.0061C27.1816 40.0758 27.1816 40.0758 27.1816 40.1455C27.1816 40.2152 27.1816 40.2152 27.2513 40.2849L27.321 40.3546C27.3907 40.4243 27.3907 40.4243 27.4604 40.4243H27.5301C27.5998 40.4243 27.6695 40.4243 27.7392 40.3546C27.8089 40.2849 27.8786 40.2849 27.9483 40.2152C28.018 40.2152 28.018 40.1455 28.018 40.1455C28.018 40.1455 28.0877 40.0758 28.0877 40.0061C28.0877 39.9364 28.0877 39.9364 28.0877 39.8667C28.0877 39.797 28.0877 39.797 28.018 39.7273Z" fill="#595959"/>
<path d="M29.3428 38.6122C29.3428 38.5425 29.2731 38.5425 29.2731 38.4728L29.2034 38.4031C29.1337 38.4031 29.064 38.3334 28.9944 38.3334H28.9247C28.855 38.3334 28.7853 38.4031 28.7853 38.4031C28.7156 38.4728 28.7156 38.4728 28.6459 38.5425C28.6459 38.5425 28.5762 38.6122 28.5762 38.6819C28.5762 38.7516 28.5762 38.7516 28.5762 38.8213C28.5762 38.891 28.5762 38.891 28.5762 38.9606C28.5762 39.0303 28.6459 39.0303 28.6459 39.1L28.7156 39.1697C28.7853 39.1697 28.855 39.2394 28.9247 39.2394H28.9944C29.064 39.2394 29.1337 39.1697 29.1337 39.1697C29.2034 39.1 29.2034 39.1 29.2731 39.0303C29.2731 39.0303 29.3428 38.9606 29.3428 38.8909C29.3428 38.8213 29.3428 38.8213 29.3428 38.7516C29.3428 38.7516 29.3428 38.6819 29.3428 38.6122Z" fill="#595959"/>
<path d="M31.9213 37.4273C31.9213 37.3577 31.8516 37.288 31.7819 37.2183C31.7122 37.1486 31.5728 37.1486 31.5031 37.1486C31.294 37.2183 31.0152 37.288 30.8061 37.3576C30.7364 37.3576 30.6667 37.4273 30.597 37.497C30.5273 37.5667 30.5273 37.7061 30.5273 37.7758C30.5273 37.8455 30.597 37.9152 30.6667 37.9849C30.7364 38.0546 30.8758 38.0546 30.9455 38.0546C31.1546 37.9849 31.4334 37.9152 31.6425 37.8455C31.7122 37.8455 31.7819 37.7758 31.8516 37.7061C31.9213 37.6364 31.991 37.497 31.9213 37.4273Z" fill="#595959"/>
<path d="M35.6845 36.7999C35.6148 36.7302 35.5451 36.7302 35.4057 36.7302H34.9178C34.8481 36.7302 34.7087 36.7999 34.639 36.7999C34.639 36.7999 34.5693 36.8696 34.5693 36.9393C34.5693 37.009 34.5693 37.009 34.5693 37.0787C34.5693 37.1484 34.5693 37.2878 34.639 37.3575C34.7087 37.4272 34.7784 37.4272 34.9178 37.4272H35.4057C35.4754 37.4272 35.6148 37.3575 35.6845 37.3575C35.6845 37.3575 35.7542 37.2878 35.7542 37.2181C35.7542 37.1484 35.7542 37.1484 35.7542 37.0787C35.8239 37.009 35.7542 36.8696 35.6845 36.7999Z" fill="#595959"/>
<path d="M38.6818 36.5909C38.2636 36.5909 38.2636 37.2879 38.6818 37.2879C39.1 37.2879 39.1 36.5909 38.6818 36.5909Z" fill="#595959"/>
<path d="M42.0272 37.1485C42.0272 37.0788 41.9575 37.0788 41.8878 37.0091C41.8181 36.9394 41.7484 36.9394 41.6787 36.8697C41.609 36.8697 41.609 36.8 41.5393 36.8C41.4696 36.8 41.4696 36.8 41.3999 36.8C41.3302 36.8 41.3302 36.8001 41.2605 36.8697C41.1908 36.8697 41.1908 36.9394 41.1908 36.9394C41.1908 36.9394 41.1908 37.0091 41.1211 37.0091C41.1211 37.0788 41.1211 37.1485 41.1211 37.2182C41.1211 37.2182 41.1211 37.2879 41.1908 37.2879C41.1908 37.3576 41.2605 37.3576 41.3302 37.4273C41.3999 37.497 41.4696 37.497 41.5393 37.5667C41.609 37.5667 41.609 37.6364 41.6787 37.6364C41.7484 37.6364 41.7484 37.6364 41.8181 37.6364C41.8878 37.6364 41.8878 37.6364 41.9575 37.5667C42.0272 37.5667 42.0272 37.497 42.0272 37.497C42.0272 37.497 42.0272 37.4273 42.0969 37.4273C42.0969 37.3576 42.0969 37.2879 42.0969 37.2182C42.0272 37.1485 42.0272 37.1485 42.0272 37.1485Z" fill="#595959"/>
<path d="M44.1881 37.8454C44.1881 37.7757 44.1184 37.706 44.0487 37.6363C43.8397 37.4969 43.7003 37.4272 43.4912 37.2878C43.4215 37.2181 43.2821 37.2181 43.2124 37.2181C43.1427 37.2181 43.073 37.2878 43.0033 37.3575C42.9336 37.4272 42.9336 37.5666 42.9336 37.6363C42.9336 37.706 43.0033 37.7757 43.073 37.8454C43.2821 37.9848 43.4215 38.0545 43.6306 38.1939C43.77 38.3333 43.9094 38.3333 43.979 38.3333C44.0487 38.3333 44.1184 38.2636 44.1881 38.1939C44.1881 38.0545 44.2578 37.9848 44.1881 37.8454Z" fill="#595959"/>
<path d="M46.0005 38.9607C46.0005 38.891 45.9308 38.891 45.8611 38.8213C45.7217 38.7516 45.652 38.6819 45.5127 38.6122C45.443 38.6122 45.443 38.5425 45.3733 38.5425C45.3036 38.5425 45.3036 38.5425 45.2339 38.5425C45.1642 38.5425 45.1642 38.5425 45.0945 38.6122C45.0248 38.6122 45.0248 38.6819 45.0248 38.6819C45.0248 38.6819 45.0248 38.7516 44.9551 38.7516C44.9551 38.8213 44.9551 38.891 44.9551 38.9607C44.9551 38.9607 44.9551 39.0304 45.0248 39.0304C45.0248 39.1001 45.0945 39.1001 45.1642 39.1698C45.3036 39.2395 45.3733 39.3091 45.5127 39.3788C45.5824 39.3788 45.5824 39.4485 45.652 39.4485C45.7217 39.4485 45.7217 39.4485 45.7914 39.4485C45.8611 39.4485 45.8611 39.4485 45.9308 39.3788C46.0005 39.3788 46.0005 39.3091 46.0005 39.3091C46.0005 39.3091 46.0005 39.2395 46.0702 39.2395C46.0702 39.1698 46.0702 39.1001 46.0702 39.0304C46.0005 38.9607 46.0005 38.9607 46.0005 38.9607Z" fill="#595959"/>
<path d="M47.3937 40.2848C47.3937 40.2151 47.324 40.1454 47.324 40.1454C47.2543 40.0757 47.1846 40.006 47.1149 39.9363C47.1149 39.9363 47.0452 39.8666 46.9755 39.8666C46.9058 39.8666 46.9058 39.8666 46.8361 39.8666C46.7665 39.8666 46.7665 39.8666 46.6968 39.8666C46.6271 39.8666 46.6271 39.9363 46.5574 39.9363L46.4877 40.006C46.4877 40.0757 46.418 40.1454 46.418 40.2151V40.2848C46.418 40.3545 46.4877 40.4242 46.4877 40.4242C46.5574 40.4938 46.6271 40.5635 46.6968 40.6332C46.6968 40.6332 46.7665 40.7029 46.8361 40.7029C46.9058 40.7029 46.9058 40.7029 46.9755 40.7029C47.0452 40.7029 47.0452 40.7029 47.1149 40.7029C47.1846 40.7029 47.1846 40.6332 47.2543 40.6332L47.324 40.5635C47.324 40.4938 47.3937 40.4242 47.3937 40.3545V40.2848Z" fill="#595959"/>
<path d="M48.7879 42.097C48.7879 42.0273 48.7182 41.9576 48.7182 41.9576C48.5788 41.7485 48.4394 41.6091 48.2304 41.4C48.2304 41.4 48.1607 41.3303 48.091 41.3303C48.0213 41.3303 48.0213 41.3303 47.9516 41.3303C47.8819 41.3303 47.7425 41.4 47.6728 41.4C47.6031 41.4697 47.5334 41.5394 47.6031 41.6788V41.7485C47.6031 41.8182 47.6728 41.8879 47.6728 41.8879C47.8122 42.097 47.9516 42.2364 48.1607 42.4455C48.1607 42.4455 48.2304 42.5152 48.3001 42.5152C48.3698 42.5152 48.3698 42.5152 48.4394 42.5152C48.5091 42.5152 48.6485 42.4455 48.7182 42.4455C48.7879 42.3758 48.8576 42.3061 48.7879 42.1667C48.7879 42.097 48.7879 42.097 48.7879 42.097Z" fill="#595959"/>
<path d="M49.7638 43.8394C49.6245 43.6303 49.5548 43.3515 49.4154 43.1424C49.3457 43.0728 49.276 43.0031 49.2063 43.0031C49.1366 43.0031 48.9972 43.0031 48.9275 43.0728C48.8578 43.0728 48.7881 43.1424 48.7881 43.2121C48.7881 43.2818 48.7881 43.4212 48.8578 43.4909C48.9972 43.7 49.0669 43.9788 49.2063 44.1879C49.276 44.2576 49.3457 44.3273 49.4154 44.3273C49.4851 44.3273 49.6245 44.3273 49.6941 44.2576C49.7638 44.1879 49.8335 44.1182 49.8335 44.0485C49.7638 43.9788 49.7638 43.9091 49.7638 43.8394Z" fill="#595959"/>
<path d="M50.9487 46.9758C50.9487 46.8364 50.879 46.7667 50.8093 46.6273C50.7396 46.4182 50.6002 46.2788 50.4608 46.1394C50.3911 46.0697 50.3214 46.0697 50.182 46.0697C50.1123 46.0697 49.973 46.1394 49.9033 46.1394C49.8336 46.2091 49.7639 46.2788 49.8336 46.4182C49.8336 46.4879 49.8336 46.6273 49.9033 46.697C49.973 46.7667 49.973 46.7667 50.0427 46.8364C50.1123 46.9061 50.182 46.9758 50.182 47.1152C50.2517 47.1849 50.2517 47.3242 50.2517 47.4636V47.3939C50.2517 47.4636 50.2517 47.603 50.3214 47.6727C50.3911 47.7424 50.4608 47.8121 50.6002 47.7424C50.6699 47.7424 50.8093 47.7424 50.879 47.6727C50.9487 47.603 51.0184 47.5333 50.9487 47.3939C51.0184 47.1849 51.0184 47.0455 50.9487 46.9758Z" fill="#595959"/>
<path d="M51.9244 50.6C51.785 50.3212 51.7153 49.9727 51.5759 49.694C51.5759 49.6243 51.5062 49.5546 51.4365 49.4849C51.3668 49.4152 51.2274 49.4152 51.1577 49.4152C51.088 49.4152 51.0183 49.4849 50.9486 49.5546C50.8789 49.6939 50.8789 49.7636 50.8789 49.903C51.0183 50.1818 51.088 50.5303 51.2274 50.8091C51.2274 50.8788 51.2971 50.9485 51.3668 51.0182C51.4365 51.0879 51.5759 51.0879 51.6456 51.0879C51.7153 51.0879 51.785 51.0182 51.8547 50.9485C51.9244 50.8091 51.9244 50.6697 51.9244 50.6Z" fill="#595959"/>
<path d="M53.4582 52.7606C53.3188 52.6212 53.2491 52.4818 53.1097 52.3424C53.1097 52.2727 53.04 52.2727 53.04 52.2727C53.04 52.2727 52.9703 52.203 52.9006 52.203C52.8309 52.203 52.8309 52.203 52.7612 52.203C52.6915 52.203 52.6915 52.203 52.6218 52.2727C52.5521 52.3424 52.4824 52.4121 52.4824 52.4818V52.5515C52.4824 52.6212 52.4824 52.6909 52.5521 52.7606C52.6915 52.9 52.7612 53.0394 52.9006 53.1788C52.9006 53.2485 52.9703 53.2485 52.9703 53.2485C52.9703 53.2485 53.04 53.3182 53.1097 53.3182C53.1794 53.3182 53.1794 53.3182 53.2491 53.3182C53.3188 53.3182 53.3188 53.3182 53.3885 53.2485C53.4582 53.1788 53.5279 53.1091 53.5279 53.0394V52.9697C53.5279 52.9 53.5279 52.8303 53.4582 52.7606Z" fill="#595959"/>
<path d="M56.0367 53.9454C55.967 53.8757 55.8973 53.806 55.7579 53.8757C55.6882 53.8757 55.6882 53.8757 55.6185 53.8757C55.5488 53.8757 55.5488 53.8757 55.4791 53.806C55.4094 53.806 55.4094 53.7363 55.3397 53.7363C55.27 53.6666 55.2003 53.6666 55.0609 53.6666C54.9913 53.6666 54.8519 53.7363 54.7822 53.7363C54.7125 53.806 54.6428 53.8757 54.7125 54.0151C54.7125 54.0848 54.7125 54.2242 54.7822 54.2939C54.9216 54.4333 55.061 54.503 55.27 54.5727C55.3397 54.5727 55.4791 54.6424 55.5488 54.6424C55.6185 54.6424 55.6882 54.6424 55.7579 54.6424C55.8276 54.6424 55.8276 54.6424 55.8973 54.6424C55.967 54.6424 55.967 54.5727 56.0367 54.5727C56.1064 54.503 56.1761 54.4333 56.1064 54.2939C56.1064 54.0848 56.1064 54.0151 56.0367 53.9454Z" fill="#595959"/>
<path d="M59.5216 54.0151C59.5216 53.9454 59.4519 53.8757 59.3822 53.806C59.3125 53.7363 59.1731 53.7363 59.1034 53.7363C58.964 53.806 58.8943 53.806 58.755 53.806C58.6156 53.806 58.4762 53.806 58.3368 53.806H58.4065C58.3368 53.806 58.1974 53.806 58.1277 53.8757C58.058 53.9454 57.9883 54.0151 57.9883 54.0848C57.9883 54.1545 57.9883 54.2939 58.058 54.3636C58.1277 54.4333 58.1974 54.503 58.2671 54.503C58.4762 54.503 58.6156 54.5727 58.8246 54.503C59.0337 54.503 59.1731 54.4333 59.3822 54.3636C59.4519 54.2939 59.5216 54.2939 59.5913 54.2242C59.5216 54.2242 59.5913 54.0848 59.5216 54.0151Z" fill="#595959"/>
<path d="M63.0059 52.6909C63.0059 52.6212 62.9362 52.6212 62.9362 52.5515L62.8665 52.4818C62.7968 52.4818 62.7271 52.4121 62.6574 52.4121H62.5877C62.518 52.4121 62.4483 52.4818 62.4483 52.4818C62.3786 52.5515 62.3787 52.5515 62.309 52.6212C62.309 52.6212 62.2393 52.6909 62.2393 52.7606C62.2393 52.8303 62.2393 52.8303 62.2393 52.9C62.2393 52.9697 62.2393 52.9697 62.2393 53.0394C62.2393 53.1091 62.309 53.1091 62.309 53.1788L62.3786 53.2485C62.4483 53.2485 62.518 53.3182 62.5877 53.3182H62.6574C62.7271 53.3182 62.7968 53.2485 62.7968 53.2485C62.8665 53.1788 62.8665 53.1788 62.9362 53.1091C62.9362 53.1091 63.0059 53.0394 63.0059 52.9697C63.0059 52.9 63.0059 52.9 63.0059 52.8303C63.0756 52.8303 63.0756 52.7606 63.0059 52.6909Z" fill="#595959"/>
<path d="M64.6088 50.1818C64.5391 50.1121 64.4694 50.0424 64.3997 50.0424C64.33 50.0424 64.1906 50.0424 64.1209 50.1121C64.0512 50.1818 63.9816 50.2514 63.9816 50.3211C63.9119 50.5302 63.8422 50.809 63.7725 51.0181C63.7725 51.0878 63.7725 51.2272 63.8422 51.2969C63.9119 51.3666 63.9816 51.4363 64.0512 51.4363C64.1209 51.4363 64.2603 51.4363 64.33 51.3666C64.3997 51.2969 64.4694 51.2272 64.4694 51.1575C64.5391 50.9484 64.6088 50.7393 64.6785 50.4605C64.6785 50.3908 64.6785 50.2514 64.6088 50.1818Z" fill="#595959"/>
<path d="M64.7484 48.3697C64.7484 48.3 64.6787 48.3 64.6787 48.2303C64.6787 48.2303 64.609 48.1606 64.5393 48.1606C64.4696 48.1606 64.4696 48.1606 64.3999 48.1606H64.3302C64.2605 48.1606 64.1908 48.2303 64.1908 48.2303C64.1211 48.3 64.1211 48.3697 64.1211 48.5091V48.8576C64.1211 48.9273 64.1211 48.9273 64.1211 48.997C64.1211 49.0667 64.1908 49.0667 64.1908 49.1364C64.1908 49.1364 64.2605 49.2061 64.3302 49.2061C64.3999 49.2061 64.3999 49.2061 64.4696 49.2061H64.5393C64.609 49.2061 64.6787 49.1364 64.6787 49.1364C64.7484 49.0667 64.7484 48.997 64.7484 48.8576V48.5091C64.7484 48.5091 64.7484 48.4394 64.7484 48.3697Z" fill="#595959"/>
<path d="M64.2601 45.5819C64.2601 45.5122 64.1904 45.5122 64.1904 45.4425C64.1904 45.4425 64.1207 45.3728 64.051 45.3728C63.9813 45.3728 63.9813 45.3728 63.9116 45.3728H63.8419C63.7722 45.3728 63.7025 45.4425 63.7025 45.4425C63.6328 45.5122 63.6328 45.5819 63.6328 45.7213V46.0001C63.6328 46.0698 63.6328 46.0698 63.6328 46.1395C63.6328 46.2092 63.7025 46.2092 63.7025 46.2789C63.7025 46.2789 63.7722 46.3486 63.8419 46.3486C63.9116 46.3486 63.9116 46.3486 63.9813 46.3486H64.051C64.1207 46.3486 64.1904 46.2789 64.1904 46.2789C64.2601 46.2092 64.2601 46.1395 64.2601 46.0001V45.6516C64.3298 45.6516 64.3298 45.5819 64.2601 45.5819Z" fill="#595959"/>
<path d="M63.7028 43.7698C63.7028 43.7001 63.7028 43.7001 63.6331 43.6304C63.6331 43.5607 63.5634 43.5607 63.5634 43.5607C63.4937 43.5607 63.4937 43.491 63.424 43.491C63.3543 43.491 63.3543 43.491 63.2846 43.491L63.2149 43.5607C63.1453 43.5607 63.1453 43.6304 63.0756 43.7001C63.0756 43.7001 63.0756 43.7698 63.0059 43.7698C63.0059 43.8395 63.0059 43.9091 63.0059 43.9788C63.0756 44.1182 63.0756 44.1879 63.1453 44.3273C63.1453 44.397 63.1453 44.397 63.2149 44.4667C63.2149 44.5364 63.2846 44.5364 63.2846 44.5364C63.3543 44.5364 63.3543 44.6061 63.424 44.6061C63.4937 44.6061 63.4937 44.6061 63.5634 44.6061C63.5634 44.6061 63.6331 44.6061 63.6331 44.5364C63.7028 44.5364 63.7028 44.4667 63.7725 44.397C63.7725 44.397 63.7725 44.3273 63.8422 44.3273C63.8422 44.2576 63.8422 44.1879 63.8422 44.1182L63.7028 43.7698Z" fill="#595959"/>
<path d="M62.6567 42.0273C62.587 41.8879 62.5173 41.8182 62.4476 41.6788C62.4476 41.6091 62.3779 41.6091 62.3779 41.6091C62.3779 41.6091 62.3082 41.5394 62.2385 41.5394C62.1688 41.5394 62.1688 41.5394 62.0991 41.5394C62.0294 41.5394 62.0294 41.5394 61.9597 41.6091L61.89 41.6788C61.8203 41.7485 61.8203 41.7485 61.8203 41.8182V41.8879C61.8203 41.9576 61.8203 42.0273 61.89 42.097C61.9597 42.2364 62.0294 42.3061 62.0991 42.4455C62.0991 42.5152 62.1688 42.5152 62.1688 42.5152C62.1688 42.5152 62.2385 42.5849 62.3082 42.5849C62.3779 42.5849 62.3779 42.5849 62.4476 42.5849C62.5173 42.5849 62.5173 42.5849 62.587 42.5152L62.6567 42.4455C62.7264 42.3758 62.7264 42.3758 62.7264 42.3061V42.2364C62.7264 42.097 62.7264 42.0273 62.6567 42.0273Z" fill="#595959"/>
<path d="M61.5429 40.6333C61.5429 40.5636 61.4732 40.4939 61.4732 40.4939L61.1247 40.1454C61.1247 40.1454 61.055 40.0757 60.9853 40.0757C60.9156 40.0757 60.9156 40.0757 60.8459 40.0757C60.7762 40.0757 60.7762 40.0757 60.7065 40.0757C60.6368 40.0757 60.6368 40.1454 60.5671 40.1454L60.4974 40.2151C60.4974 40.2848 60.4277 40.3545 60.4277 40.4242V40.4939C60.4277 40.5636 60.4974 40.6333 60.4974 40.6333C60.6368 40.7727 60.7065 40.8424 60.8459 40.9817C60.8459 40.9817 60.9156 41.0514 60.9853 41.0514C61.055 41.0514 61.055 41.0514 61.1247 41.0514C61.1944 41.0514 61.1944 41.0514 61.2641 41.0514C61.3338 41.0514 61.3338 40.9817 61.4035 40.9817L61.4732 40.912C61.4732 40.8423 61.5429 40.7727 61.5429 40.703C61.6126 40.6333 61.6126 40.6333 61.5429 40.6333Z" fill="#595959"/>
<path d="M60.0086 38.6818C60.0086 38.6121 59.9389 38.5424 59.9389 38.5424C59.7995 38.3333 59.6602 38.1939 59.4511 37.9849C59.4511 37.9849 59.3814 37.9152 59.3117 37.9152C59.242 37.9152 59.242 37.9152 59.1723 37.9152C59.1026 37.9152 58.9632 37.9849 58.8935 37.9849C58.8238 38.0546 58.7541 38.1243 58.8238 38.2636V38.3333C58.8238 38.403 58.8935 38.4727 58.8935 38.4727C59.0329 38.6818 59.1723 38.8212 59.3814 39.0303C59.3814 39.0303 59.4511 39.1 59.5208 39.1C59.5905 39.1 59.5905 39.1 59.6602 39.1C59.7298 39.1 59.8692 39.0303 59.9389 39.0303C60.0086 38.9606 60.0783 38.8909 60.0086 38.7515V38.6818Z" fill="#595959"/>
<path d="M57.9872 36.5909L57.4296 36.0333C57.3599 35.9636 57.2902 35.9636 57.1508 35.9636C57.0811 35.9636 56.9417 36.0333 56.872 36.0333C56.8023 36.103 56.7326 36.1727 56.8023 36.3121C56.8023 36.3818 56.872 36.5212 56.872 36.5909L57.4296 37.1485C57.4993 37.2182 57.569 37.2182 57.7084 37.2182C57.7781 37.2182 57.9175 37.1485 57.9872 37.1485C58.0569 37.0788 58.1266 37.0091 58.0569 36.8697C58.0569 36.7303 58.0569 36.6606 57.9872 36.5909Z" fill="#595959"/>
<path d="M56.6635 35.2668C56.3847 34.9183 56.1059 34.5001 55.8968 34.1516C55.8271 34.0819 55.7574 34.0122 55.6877 34.0122C55.618 34.0122 55.4786 34.0122 55.4089 34.0819C55.2695 34.1516 55.1998 34.4304 55.2695 34.5698C55.5483 34.9183 55.8271 35.3365 56.0362 35.6849C56.1059 35.7546 56.1756 35.8243 56.2453 35.8243C56.315 35.8243 56.4544 35.8243 56.5241 35.7546C56.6635 35.6849 56.8029 35.4758 56.6635 35.2668Z" fill="#595959"/>
<path d="M54.9208 33.3151C54.9208 33.2454 54.8511 33.1757 54.8511 33.1757C54.7117 32.9666 54.5723 32.8272 54.3632 32.6182C54.3632 32.6182 54.2935 32.5485 54.2238 32.5485C54.1541 32.5485 54.1541 32.5485 54.0844 32.5485C54.0147 32.5485 53.8753 32.6182 53.8056 32.6182C53.7359 32.6879 53.6662 32.7576 53.7359 32.8969V32.9666C53.7359 33.0363 53.8056 33.106 53.8056 33.106L54.2935 33.6636C54.2935 33.6636 54.3632 33.7333 54.4329 33.7333C54.5026 33.7333 54.5026 33.7333 54.5723 33.7333C54.642 33.7333 54.7814 33.6636 54.8511 33.6636C54.9207 33.5939 54.9904 33.5242 54.9208 33.3848C54.9208 33.3848 54.9208 33.3848 54.9208 33.3151Z" fill="#595959"/>
<path d="M53.2483 31.294C53.0392 30.9455 52.8998 30.597 52.6907 30.2485C52.6211 30.1091 52.3423 30.0394 52.2029 30.1091C52.0635 30.1788 51.9938 30.3879 52.0635 30.597C52.2726 30.9455 52.412 31.294 52.6211 31.6425C52.6907 31.7819 52.9695 31.8516 53.1089 31.7819C53.318 31.7122 53.318 31.5031 53.2483 31.294Z" fill="#595959"/>
<path d="M52.0643 28.7151C51.9946 28.506 51.9249 28.2969 51.8552 28.0181C51.8552 27.8787 51.8552 27.6696 51.8552 27.5302C51.8552 27.3212 51.7158 27.1818 51.5067 27.1818C51.2976 27.1818 51.1582 27.3212 51.1582 27.5302C51.1582 28.0181 51.2279 28.4363 51.3673 28.8545C51.437 28.9242 51.437 28.9939 51.5067 29.0636C51.5764 29.1333 51.7158 29.1333 51.7855 29.1333C51.8552 29.1333 51.9249 29.0636 51.9946 28.9939C52.0643 28.8545 52.0643 28.7848 52.0643 28.7151Z" fill="#595959"/>
<path d="M51.5062 25.2303C51.4365 25.1606 51.3668 25.0909 51.2274 25.1606C51.1577 25.1606 51.0183 25.1606 50.9486 25.2303C50.8789 25.3 50.8789 25.3697 50.8789 25.5091V26.0666C50.8789 26.1363 50.9486 26.2757 50.9486 26.3454C51.0183 26.4151 51.088 26.4848 51.2274 26.4151C51.2971 26.4151 51.4365 26.4151 51.5062 26.3454C51.5759 26.2757 51.5759 26.206 51.5759 26.0666V25.5091C51.5759 25.3697 51.5759 25.3 51.5062 25.2303Z" fill="#595959"/>
<path d="M52.2731 22.4425C52.2731 22.3728 52.2034 22.3031 52.1337 22.2334C52.064 22.1637 51.9246 22.1637 51.8549 22.1637C51.7852 22.1637 51.7155 22.2334 51.6458 22.3031C51.5064 22.5819 51.4367 22.8607 51.2973 23.0698C51.2973 23.1395 51.2276 23.1395 51.2276 23.2092C51.2276 23.2788 51.2276 23.2788 51.2276 23.3485C51.2276 23.4182 51.2973 23.4879 51.367 23.5576C51.367 23.5576 51.4367 23.5576 51.5064 23.6273C51.4367 23.6273 51.4367 23.6273 51.367 23.6273C51.2973 23.6273 51.2276 23.697 51.1579 23.7667C51.0186 24.0455 50.9489 24.3243 51.0186 24.6031C51.0186 24.6728 51.0186 24.6728 51.0186 24.7425C51.0186 24.8122 51.0883 24.8122 51.0883 24.8819C51.158 24.9516 51.2276 25.0213 51.367 24.9516C51.4367 24.9516 51.5761 24.9516 51.6458 24.8819C51.7155 24.8122 51.7852 24.7425 51.7155 24.6031C51.7155 24.5334 51.7155 24.394 51.7155 24.3243C51.7155 24.2546 51.7852 24.1152 51.7852 24.0455C51.7852 23.9758 51.8549 23.9061 51.7852 23.7667C51.7852 23.697 51.7155 23.6273 51.6458 23.5576C51.6458 23.5576 51.5761 23.5576 51.5064 23.4879C51.5761 23.4879 51.5761 23.4879 51.6458 23.4879C51.7155 23.4879 51.7852 23.4182 51.8549 23.3485L52.2034 22.5819C52.2034 22.5122 52.2731 22.5122 52.2731 22.4425C52.2731 22.5122 52.2731 22.5122 52.2731 22.4425Z" fill="#595959"/>
<path d="M52.9693 20.9787C52.9693 20.909 52.9693 20.909 52.8996 20.8393C52.8996 20.7696 52.8299 20.7696 52.8299 20.7696C52.7602 20.7 52.6208 20.7 52.5511 20.7C52.5511 20.7 52.4814 20.7 52.4814 20.7696C52.4117 20.7696 52.4117 20.8393 52.342 20.909C52.2026 21.0484 52.1329 21.1878 51.9935 21.3969C51.9935 21.4666 51.9238 21.4666 51.9238 21.5363C51.9238 21.606 51.9238 21.606 51.9238 21.6757C51.9238 21.7454 51.9238 21.7454 51.9935 21.8151C51.9935 21.8848 52.0632 21.8848 52.0632 21.8848C52.1329 21.9545 52.2723 21.9545 52.342 21.9545C52.342 21.9545 52.4117 21.9545 52.4117 21.8848C52.4814 21.8848 52.4814 21.8151 52.5511 21.7454C52.6905 21.606 52.7602 21.4666 52.8996 21.2575C52.8996 21.1878 52.9693 21.1878 52.9693 21.1181C52.9693 21.0484 52.9693 20.9787 52.9693 20.9787Z" fill="#595959"/>
<path d="M53.736 20.003C53.736 19.9333 53.6663 19.9333 53.6663 19.8636C53.6663 19.8636 53.5966 19.7939 53.5269 19.7939C53.4572 19.7939 53.4572 19.7939 53.3875 19.7939H53.3179C53.2482 19.7939 53.1785 19.8636 53.1785 19.8636L53.1088 19.9333C53.1088 20.003 53.0391 20.0727 53.0391 20.1424V20.3515C53.0391 20.4212 53.0391 20.4212 53.0391 20.4909C53.0391 20.5606 53.1088 20.5606 53.1088 20.6303C53.1088 20.6303 53.1785 20.7 53.2482 20.7C53.3179 20.7 53.3179 20.7 53.3875 20.7H53.4572C53.5269 20.7 53.5966 20.6303 53.5966 20.6303L53.6663 20.5606C53.6663 20.4909 53.736 20.4212 53.736 20.3515V20.1424C53.736 20.0727 53.736 20.0727 53.736 20.003Z" fill="#595959"/>
<path d="M54.5727 19.5848C54.5727 19.5151 54.503 19.4454 54.503 19.4454L54.4333 19.3757C54.3636 19.3757 54.2939 19.306 54.2242 19.306H54.0848C54.0151 19.306 54.0151 19.306 53.9454 19.306C53.8757 19.306 53.8757 19.3757 53.806 19.3757C53.806 19.3757 53.7363 19.4454 53.7363 19.5151C53.7363 19.5848 53.7363 19.5848 53.7363 19.6545V19.7242C53.7363 19.7939 53.806 19.8636 53.806 19.8636L53.8757 19.9333C53.9454 19.9333 54.0151 20.003 54.0848 20.003H54.2242C54.2939 20.003 54.2939 20.003 54.3636 20.003C54.4333 20.003 54.4333 19.9333 54.503 19.9333C54.503 19.9333 54.5727 19.8636 54.5727 19.7939C54.5727 19.7242 54.5727 19.7242 54.5727 19.6545C54.5727 19.6545 54.5727 19.6545 54.5727 19.5848Z" fill="#595959"/>
<path d="M29.5509 16.8666C29.1328 16.8666 29.1328 17.5635 29.5509 17.5635C30.0388 17.5635 30.0388 16.8666 29.5509 16.8666Z" fill="#595959"/>
<path d="M30.9455 17.9121C30.9455 17.8424 30.8758 17.7727 30.8758 17.7727L30.6667 17.5636C30.6667 17.5636 30.597 17.4939 30.5273 17.4939C30.4576 17.4939 30.4576 17.4939 30.3879 17.4939C30.3182 17.4939 30.3182 17.4939 30.2485 17.4939C30.1788 17.4939 30.1788 17.5636 30.1091 17.5636L30.0394 17.6333C30.0394 17.703 29.9697 17.7727 29.9697 17.8424V17.9121C29.9697 17.9818 30.0394 18.0515 30.0394 18.0515C30.1091 18.1212 30.1788 18.1909 30.2485 18.2606C30.2485 18.2606 30.3182 18.3303 30.3879 18.3303C30.4576 18.3303 30.4576 18.3303 30.5273 18.3303C30.597 18.3303 30.597 18.3303 30.6667 18.3303C30.7364 18.3303 30.7364 18.2606 30.8061 18.2606L30.8758 18.1909C30.8758 18.1212 30.9455 18.0515 30.9455 17.9818V17.9121Z" fill="#595959"/>
<path d="M33.2455 19.5152C33.1758 19.3758 33.1062 19.3061 33.0365 19.1667C33.0365 19.097 32.9668 19.097 32.9668 19.097C32.9668 19.097 32.8971 19.0273 32.8274 19.0273C32.7577 19.0273 32.7577 19.0273 32.688 19.0273C32.6183 19.0273 32.6183 19.0273 32.5486 19.097L32.4789 19.1667C32.4092 19.2364 32.4092 19.2364 32.4092 19.3061V19.3758C32.4092 19.4455 32.4092 19.5152 32.4789 19.5849C32.5486 19.7243 32.6183 19.794 32.688 19.9334C32.688 20.0031 32.7577 20.0031 32.7577 20.0031C32.7577 20.0031 32.8274 20.0728 32.8971 20.0728C32.9668 20.0728 32.9668 20.0728 33.0365 20.0728C33.1062 20.0728 33.1061 20.0728 33.1758 20.0031L33.2455 19.9334C33.3152 19.8637 33.3152 19.8637 33.3152 19.794V19.7243C33.3152 19.6546 33.3152 19.5849 33.2455 19.5152Z" fill="#595959"/>
<path d="M34.4308 21.1878C34.4308 21.1181 34.3611 21.0484 34.3611 21.0484L34.152 20.8394C34.152 20.8394 34.0824 20.7697 34.0127 20.7697C33.943 20.7697 33.943 20.7697 33.8733 20.7697C33.8036 20.7697 33.8036 20.7697 33.7339 20.7697C33.6642 20.7697 33.6642 20.8394 33.5945 20.8394L33.5248 20.909C33.5248 20.9787 33.4551 21.0484 33.4551 21.1181V21.1878C33.4551 21.2575 33.5248 21.3272 33.5248 21.3272C33.5945 21.3969 33.6642 21.4666 33.7339 21.5363C33.7339 21.5363 33.8036 21.606 33.8733 21.606C33.943 21.606 33.943 21.606 34.0127 21.606C34.0824 21.606 34.0824 21.606 34.152 21.606C34.2217 21.606 34.2217 21.5363 34.2914 21.5363L34.3611 21.4666C34.3611 21.3969 34.4308 21.3272 34.4308 21.2575V21.1878Z" fill="#595959"/>
<path d="M34.8488 22.4424L34.5003 21.7455C34.4306 21.6758 34.3609 21.6061 34.2912 21.6061C34.2215 21.6061 34.0821 21.6061 34.0124 21.6758C33.9427 21.7455 33.873 21.8152 33.873 21.8849C33.873 21.9546 33.873 22.094 33.9427 22.1637C34.0821 22.3727 34.1518 22.6515 34.2912 22.8606C34.3609 22.9303 34.4306 23 34.5003 23C34.57 23 34.7094 23 34.7791 22.9303C34.8488 22.8606 34.9185 22.7909 34.9185 22.7212C34.9185 22.6515 34.9185 22.5818 34.8488 22.4424Z" fill="#595959"/>
<path d="M35.4062 24.5334C35.4062 24.4637 35.4062 24.4637 35.4062 24.394C35.4062 24.3243 35.3366 24.2546 35.3366 24.1849C35.3366 24.1152 35.2669 24.0455 35.1972 24.0455C35.1972 24.0455 35.1275 23.9758 35.0578 23.9758C34.9881 23.9758 34.9881 23.9758 34.9184 23.9758C34.8487 23.9758 34.8487 23.9758 34.779 23.9758C34.7093 23.9758 34.7093 24.0455 34.6396 24.0455C34.5699 24.1152 34.5002 24.1849 34.5699 24.3243V24.394C34.5699 24.4637 34.6396 24.4637 34.6396 24.5334C34.6396 24.5334 34.6396 24.6031 34.7093 24.6031C34.7093 24.6031 34.7093 24.6031 34.7093 24.6728C34.7093 24.6728 34.7093 24.6728 34.7093 24.7425C34.7093 24.8122 34.7093 24.8122 34.7093 24.8819C34.7093 24.9516 34.7093 24.9516 34.779 25.0213C34.779 25.091 34.8487 25.091 34.8487 25.091C34.8487 25.091 34.9184 25.1607 34.9881 25.1607C35.0578 25.1607 35.1972 25.1607 35.2669 25.091C35.3366 25.0213 35.4062 24.9516 35.4062 24.8819V24.8122C35.3366 24.6728 35.4062 24.6031 35.4062 24.5334Z" fill="#595959"/>
<path d="M35.6149 25.8576C35.6149 25.7879 35.5452 25.7183 35.4755 25.6486C35.4058 25.5789 35.2665 25.5789 35.1968 25.5789C35.1271 25.5789 35.0574 25.6486 34.9877 25.7183C34.9877 25.7183 34.9877 25.7879 34.918 25.7879C34.918 25.8576 34.918 25.9273 34.918 25.997C34.9877 26.2061 34.9877 26.4849 35.0574 26.694C35.0574 26.7637 35.1271 26.8334 35.1968 26.9031C35.2665 26.9728 35.4058 26.9728 35.4755 26.9728C35.5452 26.9728 35.6149 26.9031 35.6846 26.8334C35.6846 26.8334 35.6846 26.7637 35.7543 26.7637C35.7543 26.694 35.7543 26.6243 35.7543 26.5546C35.6846 26.2758 35.6149 26.0667 35.6149 25.8576Z" fill="#595959"/>
<path d="M36.0329 28.5758C36.0329 28.5061 35.9632 28.4364 35.8935 28.3667C35.8238 28.297 35.6844 28.297 35.6147 28.297C35.545 28.297 35.4753 28.3667 35.4056 28.4364C35.4056 28.4364 35.4056 28.5061 35.3359 28.5061C35.3359 28.5758 35.3359 28.6455 35.3359 28.7152L35.4753 29.4818C35.4753 29.5515 35.545 29.6212 35.6147 29.6909C35.6844 29.7606 35.8238 29.7606 35.8935 29.7606C35.9632 29.7606 36.0329 29.6909 36.1026 29.6212C36.1026 29.6212 36.1026 29.5515 36.1723 29.5515C36.1723 29.4818 36.1723 29.4121 36.1723 29.3425C36.1026 29.1334 36.1026 28.8546 36.0329 28.5758Z" fill="#595959"/>
<path d="M36.3815 31.6424C36.3815 31.5727 36.3118 31.503 36.2421 31.4333C36.1028 31.3636 36.0331 31.3636 35.9634 31.3636C35.8937 31.3636 35.824 31.4333 35.7543 31.503C35.7543 31.503 35.7543 31.5727 35.6846 31.5727C35.6846 31.6424 35.6846 31.7121 35.6846 31.7818C35.7543 31.9909 35.7543 32.1303 35.824 32.3394C35.824 32.4091 35.8937 32.4788 35.9634 32.5485C36.0331 32.6182 36.1724 32.6182 36.2421 32.6182C36.3118 32.6182 36.3815 32.5485 36.4512 32.4788C36.4512 32.4788 36.4512 32.4091 36.5209 32.4091C36.5209 32.3394 36.5209 32.2697 36.5209 32.2C36.4512 31.9909 36.3815 31.8515 36.3815 31.6424Z" fill="#595959"/>
<path d="M36.4515 33.7334C36.4515 33.6637 36.3818 33.6637 36.3818 33.594C36.3818 33.594 36.3121 33.5243 36.2424 33.5243C36.1727 33.5243 36.1727 33.5243 36.103 33.5243H36.0333C35.9636 33.5243 35.8939 33.594 35.8939 33.594C35.8242 33.6637 35.8242 33.7334 35.8242 33.8728V34.2213C35.8242 34.291 35.8242 34.291 35.8242 34.3607C35.8242 34.4304 35.8939 34.4304 35.8939 34.5001C35.8939 34.5001 35.9636 34.5697 36.0333 34.5697C36.103 34.5697 36.103 34.5697 36.1727 34.5697H36.2424C36.3121 34.5697 36.3818 34.5001 36.3818 34.5001C36.4515 34.4304 36.4515 34.3607 36.4515 34.2213V33.8728C36.5212 33.8728 36.5212 33.8031 36.4515 33.7334Z" fill="#595959"/>
<path d="M36.5208 35.8242C36.4511 35.7545 36.3814 35.6848 36.242 35.7545C36.1723 35.7545 36.0329 35.7545 35.9633 35.8242C35.8936 35.8939 35.8936 35.9635 35.8936 36.1029V36.6605C35.8936 36.7302 35.9633 36.8696 35.9633 36.9393C36.1026 36.9393 36.1723 36.9393 36.242 36.9393C36.3117 36.9393 36.4511 36.9393 36.5208 36.8696C36.5905 36.7999 36.5905 36.7302 36.5905 36.5908V36.0332C36.5905 35.9635 36.5905 35.8939 36.5208 35.8242Z" fill="#595959"/>
<path d="M36.5911 38.194C36.5911 38.1243 36.5214 38.1243 36.5214 38.0546C36.5214 38.0546 36.4517 37.9849 36.3821 37.9849C36.3124 37.9849 36.3124 37.9849 36.2427 37.9849H36.173C36.1033 37.9849 36.0336 38.0546 36.0336 38.0546C35.9639 38.1243 35.9639 38.194 35.9639 38.3333V38.6818C35.9639 38.7515 35.9639 38.7515 35.9639 38.8212C35.9639 38.8909 36.0336 38.8909 36.0336 38.9606C36.0336 38.9606 36.1033 39.0303 36.173 39.0303C36.2427 39.0303 36.2427 39.0303 36.3124 39.0303H36.3821C36.4517 39.0303 36.5214 38.9606 36.5214 38.9606C36.5911 38.8909 36.5911 38.8212 36.5911 38.6818V38.3333C36.5911 38.2637 36.5911 38.194 36.5911 38.194Z" fill="#595959"/>
<path d="M36.7302 40.2849C36.7302 40.2152 36.6605 40.1455 36.5908 40.0758C36.5211 40.0061 36.3817 40.0061 36.312 40.0061C36.2423 40.0061 36.1726 40.0758 36.1029 40.1455C36.1029 40.1455 36.1029 40.2152 36.0332 40.2152C36.0332 40.2849 36.0332 40.3546 36.0332 40.4243C36.1029 40.7031 36.1029 40.9819 36.1726 41.1909C36.1726 41.2606 36.2423 41.3303 36.312 41.4C36.3817 41.4697 36.5211 41.4697 36.5908 41.4697C36.6605 41.4697 36.7302 41.4 36.7999 41.3303C36.7999 41.3303 36.7999 41.2606 36.8696 41.2606C36.8696 41.1909 36.8696 41.1213 36.8696 41.0516C36.7999 40.7728 36.7999 40.494 36.7302 40.2849Z" fill="#595959"/>
<path d="M36.7293 43.2122C36.5203 43.2122 36.3809 43.3516 36.3809 43.5606V45.0243C36.3809 45.2334 36.5203 45.3728 36.7293 45.3728C36.9384 45.3728 37.0778 45.2334 37.0778 45.0243V43.5606C37.0778 43.3516 36.9384 43.2122 36.7293 43.2122Z" fill="#595959"/>
<path d="M37.1481 46.4879C37.1481 46.4182 37.0784 46.4182 37.0784 46.3485C37.0784 46.3485 37.0087 46.2788 36.9391 46.2788C36.8694 46.2788 36.8694 46.2788 36.7997 46.2788H36.73C36.6603 46.2788 36.5906 46.3485 36.5906 46.3485L36.5209 46.4182C36.5209 46.4879 36.4512 46.5576 36.4512 46.6273V46.8364C36.4512 46.9061 36.4512 46.9061 36.4512 46.9758C36.4512 47.0455 36.5209 47.0455 36.5209 47.1152C36.5209 47.1152 36.5906 47.1849 36.6603 47.1849C36.73 47.1849 36.73 47.1849 36.7997 47.1849H36.8694C36.9391 47.1849 37.0087 47.1152 37.0087 47.1152L37.0784 47.0455C37.0784 46.9758 37.1481 46.9061 37.1481 46.8364V46.6273C37.1481 46.5576 37.1481 46.4879 37.1481 46.4879Z" fill="#595959"/>
<path d="M38.3328 49.3455C38.2631 49.1364 38.1934 48.8576 38.1237 48.6485C38.1237 48.5788 38.054 48.5091 37.9843 48.4394C37.9146 48.3697 37.7752 48.3698 37.7055 48.3698C37.6358 48.3698 37.5662 48.4394 37.4965 48.5091C37.4268 48.5788 37.4268 48.7182 37.4268 48.7879C37.4965 48.997 37.5662 49.2758 37.6358 49.4849C37.6358 49.5546 37.7055 49.6243 37.7752 49.694C37.8449 49.7637 37.9843 49.7637 38.054 49.7637C38.1237 49.7637 38.1934 49.694 38.2631 49.6243C38.3328 49.5546 38.3328 49.4152 38.3328 49.3455Z" fill="#595959"/>
<path d="M39.6571 52.6212L39.5874 52.5515C39.5178 52.4121 39.3784 52.2727 39.3087 52.1333C39.3087 52.0636 39.3087 52.0636 39.239 51.9939C39.239 51.9242 39.1693 51.8545 39.0996 51.7848C39.0299 51.7151 38.8905 51.7151 38.8208 51.7151C38.7511 51.7151 38.6814 51.7848 38.6117 51.8545C38.542 51.9242 38.542 52.0636 38.542 52.1333C38.6814 52.4818 38.8208 52.8302 39.0996 53.109C39.1693 53.1787 39.239 53.1787 39.3784 53.1787C39.4481 53.1787 39.5874 53.109 39.6571 53.109C39.7268 53.0393 39.7965 52.9696 39.7268 52.8302C39.7965 52.7605 39.7268 52.6908 39.6571 52.6212Z" fill="#595959"/>
<path d="M41.8881 56.3151C41.6093 55.8969 41.3305 55.4787 41.1214 55.0605C41.0517 54.9211 40.7729 54.8514 40.6335 54.9211C40.4941 54.9908 40.4244 55.1999 40.4941 55.409C40.7729 55.8272 41.0517 56.2454 41.2608 56.6636C41.3305 56.803 41.6093 56.8727 41.7487 56.803C41.8881 56.6636 42.0275 56.4545 41.8881 56.3151Z" fill="#595959"/>
<path d="M42.7244 57.2909C42.7244 57.2212 42.6547 57.1515 42.6547 57.1515C42.585 57.0818 42.585 57.0818 42.5153 57.0121C42.5153 57.0121 42.4456 56.9424 42.3759 56.9424C42.3062 56.9424 42.3062 56.9424 42.2365 56.9424C42.1668 56.9424 42.1668 56.9424 42.0971 56.9424C42.0275 56.9424 42.0274 57.0121 41.9578 57.0121L41.8881 57.0818C41.8881 57.1515 41.8184 57.2212 41.8184 57.2909V57.3606C41.8184 57.4303 41.8881 57.5 41.8881 57.5C41.9578 57.5697 41.9578 57.5697 42.0275 57.6394C42.0275 57.6394 42.0971 57.7091 42.1668 57.7091C42.2365 57.7091 42.2365 57.7091 42.3062 57.7091C42.3759 57.7091 42.3759 57.7091 42.4456 57.7091C42.5153 57.7091 42.5153 57.6394 42.585 57.6394L42.6547 57.5697C42.6547 57.5 42.7244 57.4303 42.7244 57.3606C42.7244 57.3606 42.7244 57.3606 42.7244 57.2909Z" fill="#595959"/>
<path d="M43.8397 58.0577C43.8397 57.988 43.77 57.9183 43.77 57.9183C43.7003 57.8486 43.7003 57.8486 43.6306 57.7789C43.6306 57.7789 43.5609 57.7092 43.4912 57.7092C43.4215 57.7092 43.4215 57.7092 43.3518 57.7092C43.2821 57.7092 43.2821 57.7092 43.2124 57.7092C43.1427 57.7092 43.1427 57.7789 43.073 57.7789L43.0033 57.8486C43.0033 57.9183 42.9336 57.988 42.9336 58.0577V58.1274C42.9336 58.1971 43.0033 58.2668 43.0033 58.2668L43.1427 58.4062C43.1427 58.4062 43.2124 58.4759 43.2821 58.4759C43.3518 58.4759 43.3518 58.4759 43.4215 58.4759C43.4912 58.4759 43.4912 58.4759 43.5609 58.4759C43.6306 58.4759 43.6306 58.4062 43.7003 58.4062L43.77 58.3365C43.77 58.2668 43.8397 58.1971 43.8397 58.1274C43.8397 58.1274 43.8397 58.1274 43.8397 58.0577Z" fill="#595959"/>
<path d="M46.209 59.2424C46.1393 59.1727 46.0696 59.103 45.9999 59.103C45.7908 59.0333 45.512 58.9636 45.3029 58.8939C45.2332 58.8939 45.0939 58.8939 45.0242 58.9636C44.9545 59.0333 44.8848 59.103 44.8848 59.1727C44.8848 59.2424 44.8848 59.3818 44.9545 59.4515C45.0242 59.5212 45.0939 59.5909 45.1636 59.5909C45.3726 59.6606 45.6514 59.7303 45.8605 59.8C45.9302 59.8 46.0696 59.8 46.1393 59.7303C46.209 59.6606 46.2787 59.5909 46.2787 59.5212C46.2787 59.4515 46.2787 59.3121 46.209 59.2424Z" fill="#595959"/>
<path d="M49.9029 60.0091C49.9029 59.9394 49.8332 59.8697 49.8332 59.8697C49.7635 59.8 49.6938 59.8 49.5544 59.8H49.2059C49.1362 59.8 49.1362 59.8 49.0665 59.8C48.9968 59.8 48.9968 59.8697 48.9271 59.8697C48.9271 59.8697 48.8574 59.9394 48.8574 60.0091C48.8574 60.0788 48.8574 60.0788 48.8574 60.1485V60.2182C48.8574 60.2879 48.9271 60.3576 48.9271 60.3576C48.9968 60.4273 49.0665 60.4273 49.2059 60.4273H49.5544C49.6241 60.4273 49.6241 60.4273 49.6938 60.4273C49.7635 60.4273 49.7635 60.3576 49.8332 60.3576C49.8332 60.3576 49.9029 60.2879 49.9029 60.2182C49.9029 60.1485 49.9029 60.1485 49.9029 60.0788C49.9029 60.0788 49.9029 60.0788 49.9029 60.0091Z" fill="#595959"/>
<path d="M55.7583 59.6606C55.7583 59.5909 55.6886 59.5212 55.6886 59.5212C55.619 59.4515 55.5493 59.4515 55.4099 59.4515H55.0614C54.9917 59.4515 54.9917 59.4515 54.922 59.4515C54.8523 59.4515 54.8523 59.5212 54.7826 59.5212C54.7826 59.5212 54.7129 59.5909 54.7129 59.6606C54.7129 59.7303 54.7129 59.7303 54.7129 59.8V59.8697C54.7129 59.9394 54.7826 60.0091 54.7826 60.0091C54.8523 60.0788 54.922 60.0788 55.0614 60.0788H55.4099C55.4796 60.0788 55.4796 60.0788 55.5493 60.0788C55.6189 60.0788 55.619 60.0091 55.6886 60.0091C55.6886 60.0091 55.7583 59.9394 55.7583 59.8697C55.7583 59.8 55.7583 59.8 55.7583 59.7303C55.828 59.7303 55.7583 59.7303 55.7583 59.6606Z" fill="#595959"/>
<path d="M59.3808 59.1727C59.3111 59.103 59.2414 59.0333 59.1717 59.0333C59.0323 58.9636 58.8929 58.9636 58.6838 58.8939C58.6141 58.8939 58.4747 58.8939 58.405 58.9636C58.3353 58.9636 58.3353 59.0333 58.3353 59.0333C58.3353 59.0333 58.2656 59.103 58.2656 59.1727C58.2656 59.2424 58.2656 59.3818 58.3353 59.4515C58.405 59.5212 58.4747 59.5909 58.5444 59.5909C58.6838 59.6606 58.8232 59.6606 59.0323 59.7303C59.102 59.7303 59.2414 59.7303 59.3111 59.6606C59.3808 59.6606 59.3808 59.5909 59.3808 59.5909C59.3808 59.5909 59.4505 59.5212 59.4505 59.4515C59.4505 59.3121 59.4505 59.2424 59.3808 59.1727Z" fill="#595959"/>
<path d="M63.0052 58.8243C63.0052 58.7546 62.9355 58.7546 62.9355 58.6849C62.8658 58.6152 62.7961 58.5455 62.6567 58.6152H62.587C62.5173 58.6152 62.5173 58.6849 62.4476 58.6849C62.4476 58.6849 62.3779 58.6849 62.3779 58.7546C62.3779 58.7546 62.3779 58.7546 62.3082 58.7546C62.3082 58.7546 62.3082 58.7546 62.2385 58.7546C62.1688 58.7546 62.1688 58.7546 62.0991 58.7546C62.0294 58.7546 62.0294 58.7546 61.9597 58.8243C61.89 58.8243 61.89 58.894 61.89 58.894C61.89 58.894 61.8203 58.9637 61.8203 59.0334C61.8203 59.1031 61.8203 59.2424 61.89 59.3121C61.9597 59.3818 62.0294 59.4515 62.0991 59.4515C62.2385 59.5212 62.3779 59.5212 62.5173 59.4515C62.587 59.4515 62.6567 59.3818 62.7264 59.3818C62.7961 59.3818 62.8658 59.3121 62.8658 59.2424C62.8658 59.2424 62.9355 59.1728 62.9355 59.1031C62.9355 59.0334 62.9355 59.0334 62.9355 58.9637C63.0749 58.9637 63.0749 58.894 63.0052 58.8243Z" fill="#595959"/>
<path d="M66.142 56.6636C66.0723 56.5939 66.0026 56.5242 65.8632 56.5939C65.7935 56.5939 65.6541 56.5939 65.5844 56.6636C65.5147 56.7333 65.445 56.803 65.3753 56.8727C65.3056 56.9424 65.1662 57.0121 65.0268 57.0818C64.9571 57.0818 64.8874 57.1515 64.8177 57.2212C64.748 57.2909 64.748 57.4303 64.748 57.5C64.748 57.5697 64.8177 57.6394 64.8874 57.7091C64.9571 57.7788 65.0965 57.7788 65.1662 57.7788C65.5147 57.6394 65.7935 57.5 66.0026 57.2212C66.0723 57.1515 66.0723 57.0818 66.0723 56.9424C66.2117 56.8727 66.2117 56.7333 66.142 56.6636Z" fill="#595959"/>
<path d="M68.1635 54.3636C68.1635 54.2939 68.1635 54.2939 68.0938 54.2242C68.0938 54.1545 68.0241 54.1545 68.0241 54.1545C68.0241 54.1545 67.9544 54.1545 67.9544 54.0848C67.8847 54.0848 67.815 54.0848 67.7453 54.0848C67.7453 54.0848 67.6756 54.0848 67.6756 54.1545C67.6059 54.1545 67.6059 54.2242 67.5362 54.2939C67.4665 54.3636 67.4665 54.4333 67.3968 54.503C67.3968 54.5727 67.3271 54.5727 67.3271 54.6424C67.3271 54.7121 67.3271 54.7121 67.3271 54.7818C67.3271 54.8515 67.3271 54.8515 67.3968 54.9212C67.3968 54.9909 67.4665 54.9909 67.4665 54.9909C67.4665 54.9909 67.5362 54.9909 67.5362 55.0606C67.6059 55.0606 67.6756 55.0606 67.7453 55.0606C67.7453 55.0606 67.815 55.0606 67.815 54.9909C67.8847 54.9909 67.8847 54.9212 67.9544 54.8515C68.0241 54.7818 68.0241 54.7121 68.0938 54.6424C68.0938 54.5727 68.1635 54.5727 68.1635 54.503C68.1635 54.4333 68.1635 54.3636 68.1635 54.3636Z" fill="#595959"/>
<path d="M69.9754 50.9485C69.9754 50.8788 69.9754 50.8788 69.9057 50.8091C69.9057 50.7394 69.836 50.7394 69.836 50.7394C69.836 50.7394 69.7663 50.7394 69.7663 50.6697C69.6966 50.6697 69.6269 50.6697 69.5572 50.6697C69.5572 50.6697 69.4875 50.6697 69.4875 50.7394C69.4178 50.7394 69.4178 50.8091 69.3481 50.8788C69.2784 51.0182 69.2087 51.0879 69.139 51.2273C69.139 51.297 69.0693 51.297 69.0693 51.3666C69.0693 51.4363 69.0693 51.4363 69.0693 51.506C69.0693 51.5757 69.0693 51.5757 69.139 51.6454C69.139 51.7151 69.2087 51.7151 69.2087 51.7151C69.2087 51.7151 69.2784 51.7151 69.2784 51.7848C69.3481 51.7848 69.4178 51.7848 69.4875 51.7848C69.4875 51.7848 69.5572 51.7848 69.5572 51.7151C69.6269 51.7151 69.6269 51.6454 69.6966 51.5757C69.7663 51.4363 69.836 51.3666 69.9057 51.2273C69.9057 51.1576 69.9754 51.1576 69.9754 51.0879C69.9754 51.0182 69.9754 51.0182 69.9754 50.9485Z" fill="#595959"/>
<path d="M71.8815 47.0821C71.8642 47.0146 71.7793 46.9645 71.6945 46.9143C71.6096 46.8642 71.4746 46.8988 71.4071 46.9162C71.3396 46.9335 71.2894 47.0184 71.2393 47.1032C71.056 47.5101 70.9402 47.8997 70.7568 48.3066C70.7067 48.3914 70.7414 48.5264 70.7587 48.5939C70.7761 48.6614 70.8609 48.7116 70.9457 48.7618C71.0306 48.8119 71.1656 48.7772 71.2331 48.7599C71.3006 48.7426 71.3508 48.6577 71.4009 48.5729L71.8834 47.3695C71.9335 47.2847 71.8988 47.1497 71.8815 47.0821Z" fill="#595959"/>
<path d="M72.895 44.3033C72.8777 44.2358 72.8102 44.2531 72.7929 44.1856L72.708 44.1355C72.6405 44.1528 72.5557 44.1026 72.4882 44.12L72.4207 44.1373C72.3531 44.1547 72.303 44.2395 72.303 44.2395C72.2528 44.3244 72.2027 44.4092 72.1525 44.4941C72.1525 44.4941 72.1023 44.5789 72.1197 44.6464C72.137 44.7139 72.137 44.7139 72.1544 44.7814C72.1717 44.8489 72.1717 44.8489 72.189 44.9164C72.2064 44.984 72.2739 44.9666 72.2912 45.0341L72.3761 45.0843C72.4436 45.0669 72.5284 45.1171 72.5959 45.0997L72.6634 45.0824C72.7309 45.0651 72.7811 44.9802 72.7811 44.9802C72.8313 44.8954 72.8814 44.8105 72.9316 44.7257C72.9316 44.7257 72.9818 44.6408 72.9644 44.5733C72.9471 44.5058 72.9471 44.5058 72.9297 44.4383C72.9972 44.421 72.9799 44.3535 72.895 44.3033Z" fill="#595959"/>
<path d="M73.575 41.3517C73.5576 41.2842 73.4901 41.3015 73.4728 41.234C73.3879 41.1839 73.3031 41.1337 73.1854 41.2359C73.1179 41.2532 73.0002 41.3554 72.9327 41.3728L72.5816 41.9667C72.5314 42.0515 72.5488 42.119 72.5835 42.254C72.6008 42.3215 72.6008 42.3215 72.6182 42.389C72.6355 42.4565 72.703 42.4392 72.7203 42.5067C72.8052 42.5569 72.89 42.607 73.0077 42.5048C73.0752 42.4875 73.1929 42.3853 73.2604 42.368L73.6115 41.7741C73.6617 41.6892 73.6443 41.6217 73.6097 41.4867C73.6097 41.4867 73.5923 41.4192 73.575 41.3517Z" fill="#595959"/>
<path d="M24.4922 8.35708C22.0316 6.45887 18.7307 6.51819 16.3301 8.47571C15.0698 9.48414 13.9295 10.8485 13.5094 12.3908C12.9692 14.111 13.3293 15.9499 13.8695 17.6108C15.0098 21.17 16.9903 24.5511 19.931 26.9832C20.0511 27.1019 20.2311 27.1612 20.4112 27.1612C20.6512 27.2205 20.9513 27.1612 21.1313 26.8646C22.2116 25.1443 23.2319 23.3648 24.2522 21.6445C25.1524 20.1022 26.1727 18.5006 26.7728 16.7804C27.7331 13.8737 27.0129 10.3146 24.4922 8.35708ZM21.9716 18.0854C20.5912 18.4413 18.8508 18.0854 17.6505 17.2549C16.4501 16.4244 15.97 14.7635 16.2701 13.3399C16.5102 11.9162 17.6504 10.7892 18.9708 10.2553C20.2311 9.72141 21.7315 9.78073 22.8118 10.6705C23.832 11.501 24.3122 12.8653 24.3122 14.1703C24.3122 14.5262 24.3122 17.5515 21.9716 18.0854Z" fill="#6631FF"/>
<path d="M78.1674 20.2534C75.705 18.2898 72.4017 18.3511 69.9994 20.3762C68.7381 21.4194 67.597 22.8307 67.1766 24.4262C66.636 26.2058 66.9964 28.1081 67.5369 29.8263C68.6781 33.5081 70.66 37.0059 73.6029 39.5219C73.723 39.6446 73.9032 39.7059 74.0834 39.7059C74.3236 39.7673 74.6239 39.7059 74.8041 39.3991C75.8852 37.6196 76.9062 35.7786 77.9272 33.9991C78.8281 32.4036 79.8491 30.7467 80.4497 28.9672C81.4106 25.899 80.6298 22.2785 78.1674 20.2534ZM75.6449 30.3172C74.2636 30.6854 72.5218 30.3172 71.3207 29.4581C70.1195 28.599 69.639 26.8808 69.9393 25.408C70.1795 23.9353 71.3207 22.7694 72.642 22.2171C73.9032 21.6648 75.4047 21.7262 76.4858 22.6466C77.5068 23.5057 77.9872 24.9171 77.9872 26.2671C77.9872 26.574 77.9872 29.7649 75.6449 30.3172Z" fill="#6631FF"/>
</svg>
