<svg width="98" height="71" viewBox="0 0 98 71" fill="none" xmlns="http://www.w3.org/2000/svg">
<path d="M65.5824 3.15248L41.2604 0.021941C38.5513 -0.339276 38.0095 3.87492 40.7186 4.17594L41.0798 4.23614L40.1768 10.9789C40.0564 12.1227 41.8023 12.3635 41.9829 11.2197L42.8859 4.47695L62.2111 7.00548L61.2478 14.2298C61.1274 15.3737 62.8733 15.6145 63.0539 14.4706L64.0171 7.24629L65.0406 7.36668C67.7497 7.6677 68.2916 3.5137 65.5824 3.15248Z" fill="#532F80"/>
<path d="M97.4902 28.1367C97.6709 24.8858 97.6708 21.5144 96.226 18.5645C96.1056 18.3237 95.925 18.1431 95.6842 18.0227C95.5035 17.9022 95.3229 17.7818 95.0219 17.7216C83.8242 15.9758 72.6264 14.2901 61.4287 12.785C50.2309 11.2799 38.973 9.89526 27.7151 8.63099C21.3335 7.90856 14.952 7.24634 8.57053 6.64431C7.78789 6.5841 7.30627 7.18613 7.24606 7.78816C2.79105 20.19 0.322728 33.3142 0.0217132 46.4986C-0.0384897 50.2312 0.0217187 53.9638 0.26253 57.6964C0.26253 57.9372 0.382933 58.178 0.503338 58.3586C0.563541 58.5392 0.683951 58.6596 0.864559 58.8402C2.97166 60.5259 5.62059 61.0677 8.20931 61.6096C11.0991 62.2116 13.9888 62.8136 16.8785 63.4156C22.658 64.6197 28.4977 65.7034 34.3374 66.7268C45.9565 68.7135 57.6961 70.2788 69.4357 70.64C76.1182 70.8808 82.7405 70.7002 89.423 70.1584C89.9649 70.0982 90.3261 69.737 90.3863 69.3155C90.7475 69.1349 90.9281 68.7737 91.0485 68.4125C94.6005 55.2281 96.7076 41.7426 97.4902 28.1367Z" fill="#7732AD"/>
<path d="M14.229 11.6411C15.4932 10.8585 16.0952 9.65443 16.5167 8.14935C16.5769 7.96874 16.6371 7.72793 16.6973 7.48712C13.9881 7.1861 11.3392 6.9453 8.63008 6.70449C7.84745 6.64428 7.36582 7.24631 7.30562 7.84834C6.8842 9.0524 6.46278 10.1962 6.10156 11.4003C8.44948 12.785 11.9412 13.086 14.229 11.6411Z" fill="#34FB14"/>
<path d="M89.3627 21.9961C89.4831 22.6583 89.6637 23.2603 90.0249 23.9827C90.0851 24.1634 90.2055 24.344 90.2657 24.4644C90.2657 24.4644 90.2657 24.4644 90.2657 24.5246C90.3259 24.5848 90.3259 24.645 90.3861 24.7052C90.5667 25.0062 90.7473 25.247 90.9881 25.548C91.1085 25.6684 91.2289 25.849 91.3493 25.9695C91.4095 26.0297 91.4698 26.0296 91.4698 26.0898C91.7106 26.3307 92.0116 26.5113 92.2524 26.7521C92.4932 26.9327 92.9748 27.2337 93.0952 27.2939C93.035 27.2337 93.336 27.4143 93.4564 27.4745C93.6371 27.5347 93.7575 27.6551 93.9381 27.7153C95.1421 28.3174 96.2258 28.6184 97.3696 28.8592C97.3696 28.6184 97.4298 28.3776 97.4298 28.1367C97.6105 24.8858 97.6105 21.5144 96.1656 18.5645C96.0452 18.3237 95.8646 18.1431 95.6238 18.0227C95.4431 17.9023 95.2625 17.7819 94.9615 17.7216C93.035 17.4206 91.1687 17.1196 89.2422 16.8186C89.0616 18.5645 89.0014 20.2502 89.3627 21.9961Z" fill="#34FB14"/>
<path d="M89.7842 62.2114C86.5934 63.1747 84.1251 65.2818 82.4394 68.1113C81.9578 68.894 81.5966 69.7368 81.2354 70.6399C84.0047 70.5195 86.7138 70.3991 89.4831 70.1582C90.025 70.098 90.3862 69.7368 90.4464 69.3154C90.8076 69.1348 90.9882 68.7736 91.1086 68.4124C91.7107 66.1849 92.1923 63.9573 92.7341 61.79C91.7107 61.79 90.6872 61.9706 89.7842 62.2114Z" fill="#34FB14"/>
<path d="M7.12577 60.9474C7.12577 60.526 7.06556 60.1648 7.06556 59.7434C7.00536 58.9005 6.88496 57.9975 6.70435 57.1546C6.64415 56.974 6.58395 56.7332 6.58395 56.5526C6.58395 56.4924 6.52374 56.4322 6.52374 56.372C6.52374 56.3118 6.46353 56.2516 6.46353 56.1914C6.34313 55.8302 6.22273 55.5292 6.10232 55.168C5.98192 54.8067 5.80131 54.4455 5.6207 54.0843C5.56049 54.0241 5.50029 53.9037 5.44009 53.8435C5.31968 53.7231 5.25948 53.5425 5.13907 53.4221C5.01867 53.2415 4.89826 53.1211 4.71765 52.9404C4.65745 52.8802 4.65745 52.8802 4.65745 52.8802C4.65745 52.8802 4.59725 52.8802 4.59725 52.82C4.35644 52.5792 4.05542 52.3986 3.7544 52.218C3.7544 52.218 3.69421 52.218 3.69421 52.1578C3.634 52.0976 3.57379 52.0976 3.45339 52.0374C3.27278 51.9772 3.15238 51.917 2.97177 51.8568C2.91157 51.8568 2.67075 51.7966 2.61055 51.7364C2.42994 51.6762 2.24934 51.6762 2.06873 51.616C1.28609 51.4956 0.804466 51.4956 0.0820312 51.5558C0.142234 53.6027 0.202433 55.6496 0.322839 57.6965C0.322839 57.9373 0.443251 58.1781 0.563656 58.3587C0.623859 58.5393 0.74426 58.6597 0.924868 58.8403C2.73096 60.2852 4.89826 60.8872 7.12577 61.3689C7.12577 61.2484 7.12577 61.0678 7.12577 60.9474Z" fill="#34FB14"/>
<path opacity="0.2" d="M97.4898 28.1368C97.6704 24.8859 97.6704 21.5145 96.2255 18.5646C96.1051 18.3238 95.9245 18.1432 95.6837 18.0228C95.5031 17.9024 95.3225 17.7819 95.0215 17.7217C87.3155 16.5177 79.5493 15.3136 71.7831 14.23C75.8167 19.3472 79.0075 25.5481 77.984 32.2306C77.382 35.903 75.6361 39.2744 73.3484 42.2243C71.1209 45.1141 68.5322 47.6426 65.5822 49.7497C59.3211 54.0241 52.0366 55.77 44.6316 56.7332C29.9421 58.6597 15.072 58.2985 0.322266 57.0944C0.322266 57.3353 0.322269 57.5761 0.382472 57.8169C0.382472 58.0577 0.502874 58.2985 0.62328 58.4791C0.683483 58.6597 0.803893 58.7801 0.984501 58.9607C3.0916 60.6464 5.74053 61.1883 8.32926 61.7301C11.219 62.3321 14.1087 62.9341 16.9985 63.5362C22.778 64.7402 28.6176 65.8239 34.4573 66.8473C46.0765 68.834 57.8161 70.3993 69.5556 70.7605C76.2382 71.0013 82.8605 70.8207 89.543 70.2789C90.0848 70.2187 90.446 69.8575 90.5062 69.436C90.8675 69.2554 91.0481 68.8942 91.1685 68.533C94.6 55.2282 96.7071 41.7427 97.4898 28.1368Z" fill="#120F0E"/>
<path opacity="0.17" d="M49.1471 19.5277C49.8696 19.2267 50.592 18.9257 51.194 18.3838C52.0971 17.6012 52.6991 16.0961 52.6389 14.9523C52.5787 14.2298 52.5185 13.9288 52.0971 13.4472C52.0971 13.4472 51.9767 13.2666 51.9165 13.2666C51.796 13.1462 51.6756 13.086 51.5552 12.9656C51.4348 12.8452 51.2542 12.785 51.1338 12.6646C51.1338 12.6646 50.9532 12.5441 50.893 12.5441C49.8094 11.9421 48.6053 11.5207 47.5216 10.9187H47.4614C40.8993 10.0758 34.3372 9.29318 27.7149 8.57075C24.8251 8.26973 21.9956 7.96872 19.1059 7.6677C15.0723 7.36669 10.9183 7.18608 7.06528 8.32994C3.15209 19.2869 0.804178 30.8458 0.202148 42.465C0.924583 42.9466 2.12864 43.4282 3.15209 43.7293C5.92142 44.4517 8.51015 43.7293 10.6775 42.0436C14.5906 39.0334 16.5773 34.0366 19.5875 30.2438C21.2732 28.1367 23.1997 26.3306 25.5476 25.0062C27.8353 23.6817 30.424 22.8389 33.0127 22.3572C38.13 21.3338 43.488 21.3338 48.5451 19.7083C48.7859 19.6481 48.9665 19.5879 49.1471 19.5277Z" fill="#EFDADA"/>
<path d="M28.0158 40.9597C27.1128 38.0098 23.922 36.6251 21.0323 36.9261C19.467 37.1068 17.8415 37.8894 17.1191 39.3945C16.9987 39.6955 16.9385 39.9965 16.8783 40.2373C15.8548 41.8026 15.7344 43.8495 16.7579 45.5954C18.263 48.1239 21.4537 48.9667 24.1628 47.9433C25.4873 47.4617 26.6914 46.4984 27.4138 45.2943C28.3168 44.0301 28.4975 42.525 28.0158 40.9597Z" fill="#FFA67C"/>
<path d="M25.7278 41.6822C25.1859 39.9363 23.2595 39.0333 21.5136 39.2741C20.5503 39.3945 19.5871 39.8761 19.1657 40.7792C19.1055 40.9598 19.0453 41.1404 19.0453 41.321C18.4432 42.2843 18.383 43.5485 18.985 44.572C19.8881 46.1372 21.8146 46.6189 23.5003 46.0168C24.2829 45.7158 25.0655 45.1138 25.487 44.3913C25.9084 43.4883 26.0288 42.5853 25.7278 41.6822Z" fill="#FFFCF2"/>
<path d="M56.1911 46.1976C56.2513 44.813 56.2513 43.3681 56.3115 41.9834C56.3115 41.3814 56.3717 40.7794 55.9503 40.2375C55.4687 39.6355 54.8064 39.5753 54.1442 39.5151C52.7595 39.4549 51.3749 39.3947 49.9902 39.3345C46.7392 39.2141 43.4883 39.0937 40.2373 38.9131C39.5751 38.9131 39.1537 39.2743 38.9731 39.8161C38.7323 39.9967 38.4914 40.2375 38.4312 40.659C38.0098 42.9467 37.9496 45.2946 38.2506 47.5823C38.3108 48.1843 38.9731 48.7261 39.6353 48.6057C42.1638 48.1241 44.6924 48.3649 47.2209 48.7262C48.5453 48.9068 49.8096 49.1476 51.1341 49.268C51.7361 49.3282 52.3983 49.3884 53.0003 49.4486C53.6024 49.5088 54.385 49.569 54.987 49.4486C56.4319 49.0272 56.1911 47.3415 56.1911 46.1976Z" fill="#FBB114"/>
<path d="M53.662 45.5956C53.662 44.5722 53.7222 43.609 53.7222 42.5855C53.7222 42.1641 53.7824 41.6825 53.4813 41.3213C53.1803 40.8998 52.6987 40.8396 52.1569 40.8396C51.1334 40.7794 50.1702 40.7794 49.1467 40.7192C46.7988 40.5988 44.5111 40.5386 42.1632 40.4182C41.6816 40.4182 41.3806 40.7192 41.2602 41.0202C41.0795 41.1406 40.8989 41.3213 40.8989 41.6223C40.5979 43.2477 40.5979 44.9334 40.7785 46.5589C40.8387 46.9803 41.3204 47.4017 41.7418 47.2813C43.5479 46.9201 45.354 47.1007 47.16 47.4017C48.1233 47.5221 49.0263 47.7028 49.9896 47.8232C50.411 47.8834 50.8926 47.9436 51.314 47.9436C51.7957 47.9436 52.2773 48.064 52.7589 47.9436C53.7824 47.6426 53.662 46.4385 53.662 45.5956Z" fill="#EA7A00"/>
<path d="M41.0194 58.4188C41.1398 57.6361 41.2 56.7933 41.2602 56.0107C41.3806 54.4454 41.3806 52.8801 41.3806 51.3148C41.3806 49.8699 41.3806 48.3047 41.1398 46.8598C40.7786 44.8129 38.6113 45.2343 36.9858 45.2343C35.1797 45.2945 33.3134 45.2945 31.5073 45.3547C30.7849 45.3547 30.2431 46.2578 30.3635 46.92C30.3635 47.0404 30.4237 47.1608 30.4839 47.2812C30.4839 47.3414 30.4237 47.4618 30.4237 47.522C30.4237 50.6526 30.4237 53.7831 30.4237 56.9137C30.4237 58.4188 30.0023 60.5861 31.9288 60.9473C33.4338 61.2483 35.0593 61.3085 36.5644 61.4891C38.0092 61.6697 39.9357 62.1513 40.598 60.3453C40.899 59.8636 40.9592 59.081 41.0194 58.4188Z" fill="#9969FF"/>
<path d="M39.8144 57.2149C39.8746 56.6128 39.9348 55.9506 39.995 55.3486C40.0552 54.1445 40.1154 52.9404 40.1154 51.7364C40.1154 50.5925 40.1154 49.3885 39.9348 48.3048C39.6338 46.7395 37.9481 47.0406 36.7441 47.0406C35.3594 47.1008 33.9145 47.1008 32.5299 47.161C31.988 47.161 31.5666 47.8232 31.6268 48.365C31.6268 48.4854 31.687 48.5456 31.7472 48.666C31.7472 48.7262 31.7472 48.7864 31.7472 48.8467C31.7472 51.2548 31.7472 53.6629 31.7472 56.071C31.7472 57.2149 31.4462 58.9005 32.9513 59.2015C34.1553 59.4424 35.3594 59.5026 36.5635 59.623C37.7073 59.7434 39.1522 60.1046 39.6338 58.7801C39.694 58.2985 39.7542 57.7567 39.8144 57.2149Z" fill="#F0F8FF"/>
</svg>
