<svg width="90" height="61" viewBox="0 0 90 61" fill="none" xmlns="http://www.w3.org/2000/svg">
<path d="M88.3237 30.275C88.4526 29.8251 88.3237 29.4394 88.1303 29.118C88.0013 28.8609 87.8079 28.6681 87.55 28.6038C81.3609 26.0327 75.1718 23.6544 68.9182 21.2761C55.7019 15.4268 42.4211 10.0917 28.9469 5.20653C24.1117 3.47102 19.2119 1.73551 14.3122 0.128558C13.7965 -0.0642771 13.3452 0.128558 13.0873 0.449948C12.8939 0.578505 12.7005 0.771339 12.636 1.02845C9.09017 11.1201 4.96409 21.019 0.128848 30.5964C-0.129032 31.0464 -9.22587e-05 31.4963 0.257787 31.7534C0.322257 32.1391 0.515667 32.4605 1.03143 32.6533C20.5658 39.4668 39.9713 46.7302 59.2478 54.3151C64.7277 56.5005 70.1432 58.686 75.5586 60.8714C76.0099 61.0643 76.3323 61 76.6546 60.7429C77.1059 60.7429 77.4927 60.4858 77.6861 60.0358C81.7478 50.2655 85.2291 40.3667 88.3237 30.275Z" fill="#34FB14"/>
<path d="M27.4636 30.3393C27.5281 30.275 27.5281 30.275 27.5281 30.275L27.5925 30.2107L27.657 30.1465C27.7215 30.0822 27.7215 30.0179 27.657 29.8894C27.5281 28.411 27.3991 26.8683 27.2057 25.3899C27.2057 25.3899 27.2057 25.3899 27.2702 25.3899C27.3991 25.2613 27.5281 25.1328 27.657 25.0042C27.786 24.7471 27.8504 24.4257 27.7859 24.1686C27.7215 24.04 27.7215 23.9115 27.5925 23.7829C27.5281 23.6544 27.3991 23.5901 27.2702 23.5901C27.2057 23.5901 27.1413 23.5901 27.0768 23.6544C27.0123 23.2044 26.9478 22.7545 26.8834 22.3045C26.9478 22.2403 26.9478 22.2403 27.0123 22.176C27.1413 22.0474 27.2702 21.9189 27.3991 21.7903C27.5281 21.5332 27.5925 21.2118 27.5281 20.9547C27.4636 20.8261 27.4636 20.6976 27.3347 20.569C27.2702 20.4405 27.1413 20.3762 27.0123 20.3762C26.8834 20.3762 26.8189 20.4405 26.7544 20.5047L26.69 20.569C26.6255 20.2476 26.6255 19.9262 26.561 19.6048C26.8189 19.3477 27.1413 19.0906 27.3991 18.8335C28.5596 17.8051 29.5266 16.4552 29.3977 14.8483V14.784C29.3977 14.5911 29.2688 14.3983 29.0753 14.2698C27.0123 13.4984 25.3361 15.0411 23.9178 16.648C23.6599 16.5838 23.402 16.5838 23.0796 16.5195C23.0152 16.5195 22.8862 16.5195 22.8218 16.4552C22.8862 16.3909 22.8862 16.3909 22.9507 16.3267C23.0152 16.2624 23.0796 16.1981 23.0796 16.0695C23.0796 15.941 23.0152 15.8124 22.8862 15.7482C22.7573 15.6839 22.6284 15.6196 22.4994 15.5553C22.2415 15.491 21.9192 15.491 21.6613 15.6196C21.5324 15.6839 21.4034 15.8124 21.2745 15.941C21.21 16.0053 21.1456 16.0695 21.0811 16.1338C20.6298 16.0695 20.1785 16.0053 19.7917 15.941C19.8562 15.8767 19.9206 15.8124 19.9206 15.6839C19.9206 15.5553 19.8562 15.4268 19.7272 15.3625C19.5983 15.2982 19.4693 15.2339 19.3404 15.1697C19.0825 15.1054 18.7602 15.1054 18.5023 15.2339C18.3733 15.2982 18.2444 15.4268 18.1155 15.5553C18.051 15.6196 18.051 15.6196 17.9865 15.6839L16.2458 15.4268C15.4722 15.2982 14.6341 15.1697 13.8605 15.1054C13.1513 15.0411 12.2487 15.1697 11.8619 15.8767V15.941C11.8619 16.0053 11.9264 16.0695 11.9908 16.1338L12.0553 16.1981C13.9894 17.4194 16.0524 18.5764 18.1155 19.6691C18.6957 19.9905 19.2759 20.3119 19.9206 20.569H19.9851C18.5668 22.0474 17.0839 23.5258 15.6011 25.0042H15.5367C14.4407 25.0042 13.3447 24.6185 12.2487 24.5543C11.6685 24.49 11.1527 24.49 10.5725 24.5543C10.2501 24.5543 10.0567 24.6828 9.92779 24.9399C9.73438 25.197 9.60544 25.3899 9.41203 25.647C9.41203 25.7113 9.34756 25.7113 9.34756 25.7756C9.28309 25.9041 9.34756 26.0327 9.4765 26.0969C10.9593 26.9326 12.4421 27.6396 14.0539 28.1538C14.1828 28.8609 14.5696 29.568 14.892 30.2107C15.2788 30.9821 15.5367 31.8177 15.7301 32.6533C15.7301 32.7176 15.7301 32.7819 15.7945 32.8462C15.9235 32.9747 16.0524 32.9747 16.1814 32.8462C16.5037 32.5248 16.8261 32.2034 17.0839 31.7534C17.1484 31.6891 17.2129 31.6249 17.2129 31.4963C17.0839 30.0179 16.955 28.4752 16.7616 26.9968C17.0195 26.9326 17.2774 26.6754 17.5352 26.4826C17.9221 26.1612 18.2444 25.9041 18.6312 25.5827C19.8562 24.5543 21.0811 23.5901 22.306 22.5616V22.6259C22.3705 22.7545 22.4349 22.8188 22.4994 22.9473C23.1441 24.04 23.7243 25.1971 24.3046 26.3541C24.6269 26.9968 24.9493 27.6396 25.2716 28.2824C25.465 28.6038 25.594 28.9895 25.7874 29.3109C25.9163 29.6322 26.0453 29.9536 26.3031 30.2107C26.4966 30.4036 26.7544 30.4679 26.9478 30.4036C27.0768 30.3393 27.2702 30.275 27.3991 30.1465C27.3991 30.4036 27.3991 30.4036 27.4636 30.3393Z" fill="#B65AFF"/>
<path d="M70.9817 29.6322C60.2152 25.9041 49.5132 22.0474 38.8112 18.0622C37.3284 17.5479 36.4258 19.7977 37.9086 20.3119C48.6106 24.2972 59.3126 28.1538 70.0791 31.882C71.5619 32.3962 72.4645 30.1465 70.9817 29.6322Z" fill="#595959"/>
<path d="M46.6121 26.6754C43.7754 25.647 41.0032 24.5543 38.231 23.3973C37.6508 23.1401 36.8772 23.4615 36.6837 24.1043C36.4259 24.7471 36.7482 25.4542 37.3929 25.647C40.1651 26.804 42.9373 27.8967 45.774 28.9252C46.4187 29.1823 47.1279 28.8609 47.3213 28.2181C47.5147 27.6396 47.1923 26.8683 46.6121 26.6754Z" fill="#595959"/>
<path d="M41.9701 31.4963C39.9715 30.5964 37.9085 29.7608 35.9099 28.8609C35.3297 28.6038 34.556 28.9252 34.3626 29.568C34.1692 30.2108 34.4271 30.8535 35.0718 31.1107C37.0704 32.0105 39.1334 32.8462 41.132 33.7461C41.7122 34.0032 42.4858 33.6818 42.6792 33.039C42.9371 32.4605 42.6148 31.8177 41.9701 31.4963Z" fill="#595959"/>
<path d="M69.8208 48.0158C57.5716 43.1949 45.1933 38.6955 32.7506 34.4531C31.2678 33.9389 30.3653 36.1886 31.8481 36.7028C44.3552 40.9452 56.7334 45.4447 68.9827 50.2655C70.4011 50.844 71.3037 48.5943 69.8208 48.0158Z" fill="#595959"/>
<path d="M66.468 40.3024C60.7947 38.0527 54.9924 35.9958 49.1256 34.196C47.6428 33.7461 46.7403 35.9958 48.2231 36.4457C54.0898 38.2455 59.8276 40.3024 65.5655 42.5522C67.0483 43.1307 67.9508 40.8809 66.468 40.3024Z" fill="#595959"/>
<path d="M85.809 18.4478C85.7445 17.9979 85.4222 17.6765 85.0998 17.5479C84.9064 17.4194 84.6486 17.2908 84.3262 17.3551C77.6858 17.8051 70.9809 18.4478 64.3405 19.1549C50.0282 19.7977 35.7159 20.8904 21.468 22.4974C16.3105 23.0759 11.2173 23.7187 6.12421 24.4257C5.60845 24.49 5.2861 24.8757 5.15716 25.2613C5.02822 25.4542 4.96375 25.7113 5.02822 26.0327C6.38209 36.6386 7.09126 47.3088 7.09126 58.0432C7.09126 58.5574 7.34914 58.8788 7.73596 59.0074C7.92937 59.3288 8.31619 59.5216 8.83195 59.4573C29.3978 56.8862 49.9637 54.7007 70.5941 52.901C76.4609 52.3867 82.2632 51.9368 88.1299 51.4868C88.5812 51.4226 88.9036 51.2297 89.0325 50.9083C89.4193 50.7155 89.6772 50.3298 89.6127 49.8156C88.9036 39.3383 87.6142 28.8609 85.809 18.4478Z" fill="#AE6EFF"/>
<path d="M31.3969 45.7018C31.3969 45.6375 31.3969 45.6375 31.3969 45.7018C31.3969 45.6375 31.3969 45.6375 31.4613 45.5732V45.509C31.4613 45.4447 31.4613 45.4447 31.4613 45.3804C31.4613 45.3161 31.4613 45.1876 31.3969 45.1876C30.6232 43.902 29.7851 42.6164 28.947 41.3309C28.947 41.3309 28.947 41.3309 28.947 41.2666C29.0115 41.0738 29.076 40.9452 29.076 40.7524C29.076 40.4953 29.0115 40.1739 28.7536 39.9167C28.6891 39.7882 28.5602 39.7239 28.4313 39.6596C28.3023 39.5954 28.1734 39.5311 28.0444 39.5954C27.98 39.6596 27.9155 39.6596 27.9155 39.7882C27.6576 39.4025 27.3997 39.0169 27.1419 38.6312C27.1419 38.5669 27.2063 38.5669 27.2063 38.5026C27.2708 38.3098 27.3353 38.1812 27.3353 37.9884C27.3353 37.7313 27.2708 37.4099 27.0129 37.1528C26.9485 37.0242 26.8195 36.96 26.6906 36.8957C26.5616 36.8314 26.4327 36.7671 26.3037 36.8314C26.1748 36.8957 26.1748 36.96 26.1103 37.0885V37.1528C25.9169 36.8957 25.7235 36.6386 25.5301 36.3172C25.659 35.9958 25.8525 35.6101 25.9814 35.2887C26.5616 33.8746 26.8195 32.2034 25.9814 30.8535C25.9814 30.8535 25.9814 30.8535 25.9814 30.7892C25.9169 30.5964 25.7235 30.4679 25.4656 30.5321C23.2737 30.725 22.4356 32.9104 21.9198 34.9673C21.6619 35.0316 21.404 35.1602 21.1462 35.2244C21.0817 35.2244 21.0172 35.2887 20.8883 35.2887C20.8883 35.2244 20.9527 35.2244 20.9527 35.1602C21.0172 35.0316 21.0172 34.9673 20.9527 34.8388C20.8883 34.7102 20.7593 34.6459 20.6304 34.6459C20.5015 34.6459 20.3725 34.6459 20.2436 34.6459C19.9857 34.7102 19.7278 34.8388 19.5344 35.0959C19.4055 35.2244 19.4055 35.4173 19.341 35.6101C19.341 35.6744 19.2765 35.8029 19.2765 35.8672C18.8252 35.9958 18.4384 36.1243 17.9871 36.3172C18.0516 36.1886 18.0516 36.1243 17.9871 35.9958C17.9227 35.8672 17.7937 35.8029 17.6648 35.8029C17.5358 35.8029 17.4069 35.8029 17.278 35.8029C17.0201 35.8672 16.7622 35.9958 16.5688 36.2529C16.4399 36.3814 16.4399 36.5743 16.3754 36.7671C16.3754 36.8314 16.3754 36.8957 16.3109 36.8957L14.8281 37.2813C14.0545 37.5385 13.2808 37.7956 12.5717 38.0527C11.927 38.3098 11.1533 38.824 11.1533 39.5954V39.6596C11.2178 39.7239 11.2823 39.7882 11.3467 39.7882H11.4112C13.7321 40.0453 16.053 40.1739 18.374 40.2381C19.0186 40.2381 19.7278 40.2381 20.3725 40.2381H20.437C19.8568 42.2308 19.2121 44.2234 18.5029 46.1517H18.4384C17.4069 46.6017 16.3109 46.7945 15.2794 47.1802C14.7636 47.373 14.2479 47.6301 13.7966 47.8872C13.5387 48.0158 13.4098 48.2086 13.3453 48.53C13.2808 48.7871 13.2808 49.1085 13.2164 49.3656C13.2164 49.4299 13.2164 49.4299 13.2164 49.4942C13.2164 49.6228 13.2808 49.7513 13.4742 49.7513C15.1505 49.8156 16.8267 49.7513 18.5029 49.5585C18.9542 50.137 19.5344 50.5869 20.1146 51.0369C20.8238 51.5511 21.404 52.1296 21.9843 52.8367C22.0487 52.9009 22.0487 52.9652 22.1132 52.9652C22.2421 53.0295 22.4356 52.9652 22.5 52.7724C22.6934 52.3224 22.7579 51.8725 22.8224 51.4225C22.8868 51.3583 22.8868 51.294 22.8224 51.1654C22.0487 49.8799 21.2106 48.5943 20.3725 47.373C20.6304 47.1802 20.6949 46.8588 20.8238 46.6017C21.0172 46.1517 21.2106 45.7661 21.404 45.3161C22.0487 43.8377 22.6934 42.4236 23.3381 40.9452C23.3381 40.9452 23.3381 40.9452 23.4026 40.9452C23.5315 41.0095 23.596 41.0738 23.725 41.138C24.8209 41.8451 25.8525 42.6164 26.884 43.3878C27.4642 43.8377 28.0444 44.2877 28.6247 44.7376C28.947 44.9947 29.2049 45.1876 29.5272 45.4447C29.7851 45.6375 30.043 45.8946 30.3654 46.0232C30.6232 46.1517 30.8811 46.0875 31.0745 45.8946C31.2035 45.7661 31.2679 45.6375 31.3969 45.509C31.3969 45.7661 31.3969 45.7018 31.3969 45.7018Z" fill="#7BFF5A"/>
<path d="M70.0136 25.647C58.7314 27.1254 47.3847 28.411 36.038 29.6322C34.4907 29.8251 34.6841 32.2034 36.2314 32.0748C47.5781 30.8535 58.9248 29.568 70.2071 28.0896C71.7543 27.8325 71.5609 25.3899 70.0136 25.647Z" fill="#595959"/>
<path d="M46.8694 33.8103C43.9038 34.1317 40.9382 34.3888 37.9081 34.5817C37.2634 34.6459 36.7476 35.2887 36.8121 35.8672C36.8766 36.51 37.4568 37.0242 38.1015 36.9599C41.0671 36.7671 44.0972 36.51 47.0628 36.1886C47.7075 36.1243 48.2233 35.5458 48.1588 34.9031C48.1588 34.2603 47.5141 33.746 46.8694 33.8103Z" fill="#595959"/>
<path d="M44.9352 40.2381C42.7432 40.3667 40.5512 40.4953 38.3593 40.6238C37.7146 40.6881 37.1988 41.3309 37.2633 41.9094C37.3277 42.5522 37.908 43.0664 38.5527 43.0021C40.7446 42.8736 42.9366 42.745 45.1286 42.6164C45.7733 42.5522 46.289 41.9094 46.2246 41.3309C46.1601 40.6881 45.6443 40.1739 44.9352 40.2381Z" fill="#595959"/>
<path d="M77.2347 42.5522C64.1474 43.7092 51.06 45.1876 37.9726 46.9874C36.4253 47.1802 36.6187 49.6228 38.166 49.4299C51.1889 47.6301 64.2763 46.1517 77.4282 44.9947C79.0399 44.8662 78.782 42.4236 77.2347 42.5522Z" fill="#595959"/>
<path d="M70.7879 37.2171C64.6632 37.7313 58.6031 38.5026 52.5429 39.4668C50.9956 39.7239 51.189 42.1665 52.7363 41.9094C58.7965 40.8809 64.8566 40.1739 70.9813 39.6596C72.593 39.4668 72.3351 37.0242 70.7879 37.2171Z" fill="#595959"/>
</svg>
