<svg width="80" height="53" viewBox="0 0 80 53" fill="none" xmlns="http://www.w3.org/2000/svg">
<path d="M70.9807 2.15264C70.4886 1.48813 69.8346 0.945562 69.0741 0.570863C68.3136 0.196164 67.4689 0.000354012 66.6115 0H5.33333C3.91933 0.00150299 2.5637 0.533785 1.56385 1.48007C0.564001 2.42635 0.00158807 3.70935 0 5.0476V44.1665H6.847C7.31554 46.6433 8.68948 48.8854 10.7284 50.5003C12.7673 52.1151 15.3413 53 18 53C20.6587 53 23.2327 52.1151 25.2716 50.5003C27.3105 48.8854 28.6845 46.6433 29.153 44.1665H49.5137C49.9822 46.6433 51.3561 48.8854 53.3951 50.5003C55.434 52.1151 58.008 53 60.6667 53C63.3253 53 65.8994 52.1151 67.9383 50.5003C69.9772 48.8854 71.3511 46.6433 71.8197 44.1665H80V15.5404C80.0013 14.7636 79.7487 14.0053 79.277 13.3695L70.9807 2.15264ZM27.3333 5.0476H51.3333V20.1904H27.3333V5.0476ZM5.33333 5.0476H22V20.1904H5.33333V5.0476ZM18 47.9522C16.8133 47.9522 15.6533 47.6191 14.6666 46.9952C13.6799 46.3712 12.9108 45.4843 12.4567 44.4467C12.0026 43.4091 11.8838 42.2673 12.1153 41.1658C12.3468 40.0643 12.9182 39.0524 13.7574 38.2583C14.5965 37.4641 15.6656 36.9233 16.8295 36.7042C17.9933 36.4851 19.1997 36.5975 20.2961 37.0273C21.3925 37.4571 22.3295 38.185 22.9888 39.1188C23.6481 40.0526 24 41.1505 24 42.2736C23.9982 43.7792 23.3655 45.2225 22.2407 46.2871C21.1159 47.3517 19.5908 47.9505 18 47.9522ZM60.6667 47.9522C59.48 47.9522 58.3199 47.6191 57.3332 46.9952C56.3465 46.3712 55.5775 45.4843 55.1234 44.4467C54.6693 43.4091 54.5504 42.2673 54.782 41.1658C55.0135 40.0643 55.5849 39.0524 56.424 38.2583C57.2631 37.4641 58.3322 36.9233 59.4961 36.7042C60.66 36.4851 61.8664 36.5975 62.9628 37.0273C64.0591 37.4571 64.9962 38.185 65.6555 39.1188C66.3148 40.0526 66.6667 41.1505 66.6667 42.2736C66.6649 43.7792 66.0322 45.2225 64.9074 46.2871C63.7825 47.3517 62.2574 47.9505 60.6667 47.9522ZM74.6667 39.1189H71.499C70.7863 36.9263 69.3497 35.0078 67.4 33.6449C65.4504 32.282 63.0905 31.5466 60.6667 31.5466C58.2429 31.5466 55.8829 32.282 53.9333 33.6449C51.9836 35.0078 50.547 36.9263 49.8343 39.1189H28.8323C28.1196 36.9263 26.683 35.0078 24.7334 33.6449C22.7837 32.282 20.4238 31.5466 18 31.5466C15.5762 31.5466 13.2162 32.282 11.2666 33.6449C9.31697 35.0078 7.88035 36.9263 7.16767 39.1189H5.33333V25.238H74.6667V39.1189ZM74.6667 20.1904H56.6667V5.0476H66.6115L74.6667 15.9383V20.1904Z" fill="#2A2146"/>
</svg>
