<svg width="79" height="52" viewBox="0 0 79 52" fill="none" xmlns="http://www.w3.org/2000/svg">
<path d="M75.6517 18.8808L60.7944 16.6754L51.7402 2.42479C51.2649 1.67889 50.5979 1.0638 49.8036 0.639028C49.0093 0.214258 48.1147 -0.00581007 47.2063 0.000116618L9.26028 0.291409C8.16541 0.300317 7.10061 0.637584 6.21383 1.25634C5.32706 1.8751 4.66235 2.74463 4.31208 3.74409L0 16.0635V44.3878H9.05307C9.75684 46.5919 11.1755 48.5206 13.1008 49.8906C15.026 51.2607 17.3565 52 19.75 52C22.1435 52 24.4739 51.2607 26.3992 49.8906C28.3245 48.5206 29.7431 46.5919 30.4469 44.3878H47.2364C47.9402 46.5919 49.3588 48.5206 51.2841 49.8906C53.2094 51.2607 55.5398 52 57.9333 52C60.3268 52 62.6573 51.2607 64.5825 49.8906C66.5078 48.5206 67.9265 46.5919 68.6302 44.3878H79V22.642C79.0043 21.732 78.6682 20.851 78.0533 20.1602C77.4384 19.4695 76.5858 19.0153 75.6517 18.8808ZM34.2333 5.17374L47.2482 5.07385L54.5064 16.4983L34.2333 16.4914V5.17374ZM9.30241 5.36529L28.9667 5.21434V16.4897L5.41166 16.4816L9.30241 5.36529ZM19.75 46.9249C18.5781 46.9249 17.4326 46.5901 16.4582 45.9629C15.4839 45.3356 14.7245 44.4441 14.276 43.401C13.8276 42.3579 13.7102 41.2101 13.9388 40.1028C14.1675 38.9954 14.7318 37.9783 15.5604 37.1799C16.389 36.3816 17.4447 35.8379 18.5941 35.6177C19.7434 35.3974 20.9347 35.5104 22.0174 35.9425C23.1 36.3746 24.0254 37.1062 24.6764 38.045C25.3275 38.9837 25.675 40.0874 25.675 41.2164C25.6732 42.7299 25.0484 44.1809 23.9377 45.2511C22.8269 46.3213 21.3209 46.9232 19.75 46.9249ZM57.9333 46.9249C56.7615 46.9249 55.6159 46.5901 54.6416 45.9629C53.6672 45.3356 52.9078 44.4441 52.4593 43.401C52.0109 42.3579 51.8935 41.2101 52.1222 40.1028C52.3508 38.9954 52.9151 37.9783 53.7437 37.1799C54.5723 36.3816 55.6281 35.8379 56.7774 35.6177C57.9267 35.3974 59.1181 35.5104 60.2007 35.9425C61.2834 36.3746 62.2087 37.1062 62.8598 38.045C63.5108 38.9837 63.8583 40.0874 63.8583 41.2164C63.8566 42.7299 63.2318 44.1809 62.121 45.2511C61.0102 46.3213 59.5042 46.9232 57.9333 46.9249ZM73.7333 39.3136H68.9469C68.4842 36.8237 67.1274 34.5698 65.114 32.9464C63.1006 31.3231 60.5588 30.4335 57.9333 30.4335C55.3079 30.4335 52.766 31.3231 50.7526 32.9464C48.7392 34.5698 47.3824 36.8237 46.9197 39.3136H30.7636C30.3009 36.8237 28.9441 34.5698 26.9307 32.9464C24.9173 31.3231 22.3754 30.4335 19.75 30.4335C17.1245 30.4335 14.5827 31.3231 12.5693 32.9464C10.5559 34.5698 9.19909 36.8237 8.73641 39.3136H5.26666V21.558L59.6657 21.6419L73.7333 23.7301V39.3136Z" fill="#2A2146"/>
</svg>
