<svg width="70" height="53" viewBox="0 0 70 53" fill="none" xmlns="http://www.w3.org/2000/svg">
<path d="M7.24138 8.56582e-07C3.27069 8.56582e-07 0 3.12239 0 6.91304V46.087H7.61793C8.69448 50.0481 12.4262 53 16.8966 53C21.3669 53 25.0986 50.0481 26.1752 46.087H43.8248C44.9014 50.0481 48.6331 53 53.1034 53C57.5738 53 61.3055 50.0481 62.3821 46.087H70V22.0342C69.9881 20.7338 69.596 19.4624 68.8679 18.3633L58.9883 3.23991C58.3416 2.24829 57.4408 1.4304 56.371 0.863506C55.3012 0.29661 54.0977 -0.000582308 52.8741 8.56582e-07H7.24138ZM7.24138 4.6087H19.3103V18.4348H4.82759V6.91304C4.82759 5.6157 5.88483 4.6087 7.24138 4.6087ZM24.1379 4.6087H38.6207V18.4348H24.1379V4.6087ZM43.4483 4.6087H52.8766C53.7166 4.6087 54.4697 5.01426 54.9138 5.68944L63.2124 18.4348H43.4483V4.6087ZM4.82759 23.0435H65.1724V27.6522H57.931V32.2609H65.1724V41.4783H62.3821C61.3055 37.5171 57.5738 34.5652 53.1034 34.5652C48.6331 34.5652 44.9014 37.5171 43.8248 41.4783H26.1752C25.0986 37.5171 21.3669 34.5652 16.8966 34.5652C12.4262 34.5652 8.69448 37.5171 7.61793 41.4783H4.82759V23.0435ZM16.8966 39.1739C19.5928 39.1739 21.7241 41.2087 21.7241 43.7826C21.7241 46.3566 19.5928 48.3913 16.8966 48.3913C14.2003 48.3913 12.069 46.3566 12.069 43.7826C12.069 41.2087 14.2003 39.1739 16.8966 39.1739ZM53.1034 39.1739C55.7997 39.1739 57.931 41.2087 57.931 43.7826C57.931 46.3566 55.7997 48.3913 53.1034 48.3913C50.4072 48.3913 48.2759 46.3566 48.2759 43.7826C48.2759 41.2087 50.4072 39.1739 53.1034 39.1739Z" fill="#2A2146"/>
</svg>
