<svg width="13" height="10" viewBox="0 0 13 10" fill="none" xmlns="http://www.w3.org/2000/svg">
<path d="M10.455 0.45498C10.6663 0.253813 10.9475 0.1426 11.2392 0.144808C11.531 0.147015 11.8104 0.262471 12.0187 0.466811C12.2269 0.671152 12.3476 0.948396 12.3553 1.24004C12.363 1.53169 12.2571 1.81492 12.06 2.02998L6.07499 9.51498C5.97208 9.62583 5.84787 9.71478 5.70979 9.77653C5.57171 9.83827 5.4226 9.87154 5.27137 9.87434C5.12014 9.87714 4.9699 9.84942 4.82963 9.79283C4.68936 9.73624 4.56194 9.65194 4.45499 9.54498L0.485992 5.57598C0.375462 5.47299 0.286809 5.34879 0.225321 5.21079C0.163833 5.07279 0.13077 4.92382 0.128105 4.77276C0.12544 4.62171 0.153227 4.47167 0.209808 4.33158C0.26639 4.1915 0.350607 4.06425 0.457435 3.95742C0.564263 3.85059 0.691514 3.76638 0.831596 3.7098C0.971678 3.65321 1.12172 3.62543 1.27278 3.62809C1.42383 3.63076 1.5728 3.66382 1.7108 3.72531C1.8488 3.7868 1.973 3.87545 2.07599 3.98598L5.21699 7.12548L10.4265 0.48798C10.4359 0.476431 10.4459 0.465414 10.4565 0.45498H10.455Z" fill="#4EBC6B"/>
</svg>
