<svg width="12" height="12" viewBox="0 0 12 12" fill="none" xmlns="http://www.w3.org/2000/svg">
<path d="M0.969364 0.96912C1.03903 0.899275 1.1218 0.84386 1.21291 0.806051C1.30403 0.768241 1.40171 0.748779 1.50036 0.748779C1.59901 0.748779 1.6967 0.768241 1.78781 0.806051C1.87893 0.84386 1.9617 0.899275 2.03136 0.96912L6.00036 4.93962L9.96936 0.96912C10.0391 0.899388 10.1219 0.844073 10.213 0.806334C10.3041 0.768596 10.4017 0.749172 10.5004 0.749172C10.599 0.749172 10.6966 0.768596 10.7877 0.806334C10.8788 0.844073 10.9616 0.899388 11.0314 0.96912C11.1011 1.03885 11.1564 1.12164 11.1941 1.21274C11.2319 1.30385 11.2513 1.4015 11.2513 1.50012C11.2513 1.59874 11.2319 1.69639 11.1941 1.7875C11.1564 1.8786 11.1011 1.96139 11.0314 2.03112L7.06086 6.00012L11.0314 9.96912C11.1011 10.0389 11.1564 10.1216 11.1941 10.2127C11.2319 10.3039 11.2513 10.4015 11.2513 10.5001C11.2513 10.5987 11.2319 10.6964 11.1941 10.7875C11.1564 10.8786 11.1011 10.9614 11.0314 11.0311C10.9616 11.1009 10.8788 11.1562 10.7877 11.1939C10.6966 11.2316 10.599 11.2511 10.5004 11.2511C10.4017 11.2511 10.3041 11.2316 10.213 11.1939C10.1219 11.1562 10.0391 11.1009 9.96936 11.0311L6.00036 7.06062L2.03136 11.0311C1.96163 11.1009 1.87885 11.1562 1.78774 11.1939C1.69663 11.2316 1.59898 11.2511 1.50036 11.2511C1.40175 11.2511 1.3041 11.2316 1.21299 11.1939C1.12188 11.1562 1.0391 11.1009 0.969364 11.0311C0.899632 10.9614 0.844317 10.8786 0.806579 10.7875C0.76884 10.6964 0.749416 10.5987 0.749416 10.5001C0.749416 10.4015 0.76884 10.3039 0.806579 10.2127C0.844317 10.1216 0.899632 10.0389 0.969364 9.96912L4.93986 6.00012L0.969364 2.03112C0.899519 1.96145 0.844104 1.87869 0.806295 1.78757C0.768485 1.69645 0.749023 1.59877 0.749023 1.50012C0.749023 1.40147 0.768485 1.30379 0.806295 1.21267C0.844104 1.12155 0.899519 1.03879 0.969364 0.96912Z" fill="#FF3A44"/>
</svg>
