<svg width="13" height="13" viewBox="0 0 13 13" fill="none" xmlns="http://www.w3.org/2000/svg">
<path fill-rule="evenodd" clip-rule="evenodd" d="M6.86564 0.75C6.86564 0.335786 6.52985 0 6.11564 0C5.70143 0 5.36564 0.335786 5.36564 0.75V5.36564H0.75C0.335787 5.36564 0 5.70142 0 6.11564C0 6.52985 0.335787 6.86564 0.75 6.86564H5.36564V11.4813C5.36564 11.8955 5.70143 12.2313 6.11564 12.2313C6.52985 12.2313 6.86564 11.8955 6.86564 11.4813V6.86564H11.4813C11.8955 6.86564 12.2313 6.52985 12.2313 6.11564C12.2313 5.70143 11.8955 5.36564 11.4813 5.36564H6.86564V0.75Z" fill="#2A2146"/>
</svg>
